<?xml version="1.0" encoding="iso-8859-1"?>
<!-- Generator: Adobe Illustrator 19.0.0, SVG Export Plug-In . SVG Version: 6.00 Build 0)  -->
<svg version="1.1" id="Capa_1" xmlns="http://www.w3.org/2000/svg" xmlns:xlink="http://www.w3.org/1999/xlink" x="0px" y="0px"
	 viewBox="0 0 512 512" style="enable-background:new 0 0 512 512;" xml:space="preserve">
<path style="fill:#FEA832;" d="M452,286v121c0,5.7-3.3,10.8-8.401,13.5l-181,90c-2.098,0.899-4.199,1.5-6.599,1.5
	s-4.501-0.601-6.599-1.5l-181-90C63.3,417.8,60,412.7,60,407V286c0-11.1,11.7-18.3,21.599-13.5
	c108.302,0.899,152.201-28.2,174.101-27.6h0.3c39.3,1.199,12.4,30.599,174.401,27.599C440.3,267.7,452,274.9,452,286z"/>
<path style="fill:#FEDB41;" d="M503.399,269.5c-5.998,3-103.399,50.999-145.699,72.3c-11.4,6-25.501,3.6-34.501-5.4L256,269.2
	l-22.2,22.5l-44.7,44.7c-9.001,9-23.101,11.4-34.801,5.7C111.4,320.499,11,270.7,8.601,269.5c-9.302-4.501-11.4-16.8-3.9-24.001
	l61.3-61.5c2.401-1.8,6.599-2.999,9.901-4.2H436.1c5.402,1.8,9.6,2.701,12.902,7.202l58.299,58.499
	C514.799,252.7,512.701,265,503.399,269.5z"/>
<path style="fill:#FE9923;" d="M452,286v121c0,5.7-3.3,10.8-8.401,13.5l-181,90c-2.098,0.899-4.199,1.5-6.599,1.5V244.9
	c39.3,1.199,12.4,30.599,174.401,27.599C440.3,267.7,452,274.9,452,286z"/>
<path style="fill:#FCBF29;" d="M503.399,269.5c-5.998,3-103.399,50.999-145.699,72.3c-11.4,6-25.501,3.6-34.501-5.4L256,269.2
	v-89.401h180.099c5.402,1.8,9.6,2.701,12.902,7.202L507.3,245.5C514.799,252.7,512.701,265,503.399,269.5z"/>
<path style="fill:#FEA832;" d="M436.099,179.799C426.799,184.3,265,264.699,256,269.2c-8.699-4.501-171.099-85.201-180.099-89.401
	L195.099,137.5c6.301-2.401,13.2-0.3,17.1,5.099l43.801,58.5l43.801-58.5c3.9-5.4,10.8-7.5,17.1-5.099L436.099,179.799z"/>
<path style="fill:#FE9923;" d="M436.099,179.799C426.799,184.3,265,264.699,256,269.2v-68.101l43.801-58.5
	c3.9-5.4,10.8-7.5,17.1-5.099L436.099,179.799z"/>
<path style="fill:#FF4A4A;" d="M335.2,119.399l-67.2,89.7c-3.001,3.9-7.5,5.7-12.001,5.7s-9-1.8-12.001-5.7l-67.2-89.7
	c-4.499-6-0.3-14.399,7.2-14.399H211V15c0-8.401,6.599-15,15-15h60c8.401,0,15,6.599,15,15v90h27.001
	C335.501,105,339.699,113.399,335.2,119.399z"/>
<path style="fill:#E61E14;" d="M268.001,209.099c-3.001,3.9-7.5,5.7-12.001,5.7V0h30c8.401,0,15,6.599,15,15v90h27.001
	c7.5,0,11.699,8.399,7.2,14.399L268.001,209.099z"/>
<g>
</g>
<g>
</g>
<g>
</g>
<g>
</g>
<g>
</g>
<g>
</g>
<g>
</g>
<g>
</g>
<g>
</g>
<g>
</g>
<g>
</g>
<g>
</g>
<g>
</g>
<g>
</g>
<g>
</g>
</svg>
