<?xml version="1.0" standalone="no"?>
<!DOCTYPE svg PUBLIC "-//W3C//DTD SVG 20010904//EN"
 "http://www.w3.org/TR/2001/REC-SVG-20010904/DTD/svg10.dtd">
<svg version="1.0" xmlns="http://www.w3.org/2000/svg"
 width="500.000000pt" height="500.000000pt" viewBox="0 0 500.000000 500.000000"
 preserveAspectRatio="xMidYMid meet">
<metadata>
Created by potrace 1.14, written by Peter Selinger 2001-2017
</metadata>
<g transform="translate(0.000000,500.000000) scale(0.100000,-0.100000)"
fill="#000000" stroke="none">
<path d="M0 4966 c0 -22 6 -36 16 -40 16 -6 16 -8 0 -24 -14 -17 -16 -66 -16
-464 l0 -446 41 -7 c22 -4 43 -4 46 -1 9 9 -6 38 -17 31 -5 -3 -10 -2 -10 2 0
18 25 33 52 33 32 0 33 2 16 30 -10 16 -9 23 11 44 13 13 29 22 35 20 7 -3 19
2 26 11 11 13 9 15 -14 15 -33 0 -33 13 -1 28 35 16 70 15 85 -3 7 -8 23 -15
36 -15 33 0 30 -18 -3 -26 -16 -3 -33 -7 -40 -9 -7 -2 -15 0 -18 5 -10 16 -25
12 -32 -7 -3 -10 -13 -26 -22 -36 -14 -17 -14 -19 2 -29 12 -6 16 -16 12 -29
-4 -13 -2 -19 9 -19 18 0 30 16 17 24 -5 4 -6 18 -2 34 6 21 14 28 39 30 18 2
32 7 32 13 0 5 11 9 25 9 17 0 23 -4 19 -14 -3 -8 -1 -17 5 -21 16 -10 13 -25
-5 -25 -14 0 -14 -3 -4 -15 8 -10 17 -12 24 -6 12 10 63 3 72 -10 3 -5 12 -9
20 -9 8 0 13 4 10 9 -3 5 5 16 19 25 28 19 33 46 9 46 -13 0 -14 -3 -5 -14 17
-20 -4 -30 -22 -11 -9 8 -23 12 -31 9 -9 -3 -16 -1 -16 4 0 6 -12 12 -27 14
-16 2 -27 8 -25 13 1 6 36 10 80 10 84 0 80 -3 69 59 -1 5 4 11 11 13 6 3 12
-2 12 -11 0 -13 4 -14 25 -4 14 6 25 20 25 30 0 11 13 26 30 36 35 20 38 27
10 29 -11 1 -25 -7 -30 -17 -8 -15 -17 -18 -38 -14 -19 4 -32 1 -41 -10 -7 -8
-19 -12 -27 -9 -8 3 -14 0 -14 -6 0 -6 5 -11 11 -11 5 0 7 -4 4 -10 -3 -5 -15
-10 -27 -10 -11 0 -22 -8 -25 -20 -6 -21 -46 -27 -72 -11 -11 7 -10 11 5 19
11 5 24 7 31 5 6 -2 17 4 25 15 7 10 20 22 28 26 9 3 5 4 -7 2 -13 -2 -23 -1
-23 2 0 4 -14 13 -31 21 -31 13 -47 36 -35 48 4 4 21 -2 39 -12 17 -10 42 -18
54 -17 13 1 23 -3 23 -10 0 -6 8 -4 18 5 10 10 24 17 31 17 8 0 11 6 7 15 -6
16 9 21 18 6 7 -11 56 -2 56 11 0 5 15 15 32 23 l33 13 -38 7 c-20 4 -37 11
-37 16 0 5 -4 9 -9 9 -5 0 -7 -9 -4 -20 4 -15 0 -20 -16 -20 -16 0 -23 8 -28
30 -5 25 -10 30 -32 28 -32 -2 -51 8 -51 28 0 17 19 18 57 2 15 -6 37 -13 48
-15 11 -2 27 -6 35 -10 8 -3 24 -8 35 -9 11 -1 29 -4 39 -6 29 -5 31 21 2 32
-31 11 -34 30 -6 37 23 6 24 8 10 34 -6 10 -17 19 -25 19 -8 0 -15 5 -15 11 0
5 5 7 10 4 13 -8 32 4 25 15 -7 11 -55 -8 -71 -27 -9 -10 -18 -11 -39 -3 -26
10 -30 38 -5 32 16 -4 41 29 35 46 -5 14 14 16 35 3 18 -12 36 -1 19 11 -11 7
-11 11 -1 15 6 2 12 8 12 12 0 13 -81 -5 -90 -19 -6 -10 -11 -10 -21 -2 -63
52 -77 60 -86 51 -7 -7 -14 -5 -23 6 -10 12 -10 19 -2 27 9 9 12 7 12 -7 0
-15 3 -16 12 -7 7 7 23 12 36 12 13 0 20 4 17 10 -3 6 -16 10 -29 10 -12 0
-27 5 -34 12 -17 17 -39 -5 -46 -47 -8 -41 -23 -45 -36 -9 -13 34 -13 33 13
45 18 8 16 9 -14 5 -29 -3 -36 -1 -35 12 0 9 -6 17 -14 17 -38 2 -68 24 -72
54 -4 28 -2 31 28 37 22 4 31 10 27 20 -6 16 -49 19 -58 4 -3 -5 -15 -10 -26
-10 -20 0 -27 -25 -9 -33 6 -3 5 -4 -2 -3 -7 1 -19 15 -26 29 -10 22 -20 27
-48 27 -38 0 -43 9 -15 34 16 15 19 15 31 1 7 -8 18 -14 24 -13 6 1 21 -3 33
-10 13 -7 24 -8 28 -3 3 6 -1 14 -10 18 -8 5 -16 19 -17 33 -2 18 3 25 22 30
24 6 23 7 -9 13 -18 4 -76 7 -127 7 l-94 0 0 -34z m100 -111 c0 -8 -4 -15 -9
-15 -5 0 -14 7 -21 15 -10 13 -9 15 9 15 12 0 21 -6 21 -15z m240 -184 c2 -1
-1 -6 -7 -12 -13 -13 -47 -4 -39 10 4 5 14 8 24 6 9 -2 19 -4 22 -4z m18 -76
c17 -4 32 -11 32 -16 0 -5 7 -9 15 -9 20 0 116 -66 108 -74 -12 -12 -43 -6
-86 18 -29 16 -52 23 -67 19 -18 -5 -22 -3 -18 9 7 18 1 29 -32 52 -20 15 -21
17 -5 13 11 -3 35 -8 53 -12z m190 -2 c-5 -25 -25 -27 -38 -4 -10 19 -8 21 15
21 19 0 26 -5 23 -17z m-338 -188 c0 -8 -7 -15 -15 -15 -16 0 -20 12 -8 23 11
12 23 8 23 -8z m231 -46 c11 -5 16 -15 13 -21 -5 -8 -11 -6 -18 4 -6 8 -18 17
-26 21 -10 4 -11 6 -2 6 7 1 22 -4 33 -10z m99 2 c0 -5 -7 -12 -16 -15 -22 -9
-24 -8 -24 9 0 8 9 15 20 15 11 0 20 -4 20 -9z m-254 -57 c-4 -9 -9 -15 -11
-12 -3 3 -3 13 1 22 4 9 9 15 11 12 3 -3 3 -13 -1 -22z m191 10 c-3 -3 -12 -4
-19 -1 -8 3 -5 6 6 6 11 1 17 -2 13 -5z m-209 -33 c10 -6 7 -10 -13 -15 -30
-8 -41 -3 -30 13 7 13 25 14 43 2z m-203 -181 c0 -27 -22 -39 -31 -16 -8 22 3
49 19 43 6 -2 12 -14 12 -27z"/>
<path d="M3568 4993 c12 -2 20 -8 17 -13 -3 -5 -12 -7 -19 -4 -7 3 -19 -2 -26
-11 -7 -8 -21 -15 -32 -15 -10 0 -21 -7 -24 -15 -4 -10 -11 -12 -22 -6 -10 5
-22 5 -33 -2 -13 -8 -25 -8 -43 1 -22 10 -26 9 -26 -3 0 -8 9 -15 19 -15 10 0
29 -9 42 -20 l24 -19 -37 -1 c-21 0 -38 -4 -38 -9 0 -5 -8 -17 -17 -26 -13
-14 -14 -21 -5 -36 17 -27 15 -37 -9 -41 -12 -2 -28 -12 -35 -23 -13 -20 -11
-21 35 -20 32 0 47 -4 44 -11 -2 -7 7 -24 22 -38 28 -28 26 -46 -5 -46 -19 0
-19 -1 1 -39 11 -21 21 -52 22 -67 2 -26 -2 -30 -38 -39 -33 -8 -39 -14 -37
-32 4 -26 6 -27 31 -11 15 9 29 9 61 -1 39 -11 51 -35 19 -37 -8 0 -24 -4 -37
-8 -14 -5 -29 -3 -37 4 -12 10 -15 9 -15 -9 0 -11 -5 -21 -12 -21 -6 0 -3 -9
7 -20 10 -11 24 -20 31 -20 7 0 14 -5 16 -11 3 -9 10 -9 26 0 12 6 22 8 22 4
0 -14 -17 -34 -26 -32 -20 4 -26 -2 -15 -15 8 -10 9 -16 1 -21 -13 -8 -13 -45
0 -45 13 0 13 -27 0 -35 -5 -3 -19 -1 -30 5 -16 9 -22 8 -27 -6 -6 -16 13 -38
40 -47 6 -2 6 -11 -2 -25 -7 -12 -8 -22 -2 -22 5 0 12 6 14 13 4 8 6 9 6 0 1
-18 -28 -43 -44 -37 -12 5 -15 -2 -15 -29 0 -27 -5 -36 -22 -40 -12 -4 -25 -3
-28 2 -3 4 -20 8 -37 9 -18 0 -37 3 -43 7 -18 11 -11 25 13 25 21 0 22 4 21
68 -1 106 1 103 -38 99 -49 -5 -68 -24 -61 -59 4 -17 2 -28 -4 -28 -6 0 -11
-7 -11 -15 0 -21 -16 -19 -40 5 -12 12 -25 18 -31 14 -6 -3 -22 0 -37 7 -20
11 -26 11 -29 2 -3 -7 -13 -23 -23 -35 l-18 -23 -8 30 c-9 39 -32 56 -68 52
-17 -1 -31 3 -33 11 -3 8 6 12 26 12 21 0 31 5 31 15 0 8 -9 15 -20 15 -14 0
-20 7 -20 23 0 29 -7 37 -26 30 -10 -4 -11 -10 -4 -23 7 -13 7 -21 -1 -25 -6
-4 -8 -12 -6 -19 2 -6 1 -20 -3 -31 -7 -18 -8 -17 -15 8 -5 18 -12 26 -21 23
-8 -3 -14 1 -14 10 0 8 4 13 8 10 4 -2 14 -1 22 5 11 6 4 9 -23 9 -23 0 -36 4
-32 10 3 6 17 10 31 10 13 0 24 5 24 11 0 5 -4 8 -9 5 -5 -3 -12 10 -15 29 -7
33 -9 35 -46 35 -21 0 -50 4 -63 9 -20 8 -24 7 -23 -7 1 -11 -6 -16 -17 -15
-11 0 -16 -4 -13 -12 3 -8 -2 -11 -12 -8 -11 2 -21 -5 -27 -19 -6 -14 -19 -23
-32 -23 -32 0 -39 -13 -17 -32 11 -11 18 -28 16 -40 -3 -18 0 -21 13 -17 9 4
14 13 11 20 -3 8 -1 14 5 14 7 0 9 10 4 28 -4 18 -3 24 4 17 14 -14 24 -145
11 -145 -6 0 -6 -7 2 -19 9 -15 9 -23 -1 -34 -8 -11 -9 -17 -1 -22 14 -9 1
-28 -16 -21 -7 3 -16 1 -19 -4 -4 -6 -11 -10 -16 -10 -6 0 -7 5 -4 10 3 6 1
10 -5 10 -7 0 -9 -7 -6 -16 3 -9 6 -20 6 -26 0 -6 6 -8 14 -5 12 5 114 -8 230
-28 24 -4 27 -3 16 10 -7 8 -8 15 -2 15 5 0 9 20 8 45 0 29 4 49 13 54 9 6 10
11 2 15 -18 12 -12 36 12 45 16 6 27 4 41 -8 14 -12 20 -13 23 -3 3 6 11 12
20 12 22 0 10 -25 -14 -28 -19 -3 -20 -7 -13 -33 7 -24 5 -34 -12 -51 -17 -17
-18 -22 -7 -30 10 -7 8 -8 -8 -5 -19 4 -21 2 -13 -13 8 -14 6 -21 -5 -28 -11
-6 -1 -12 37 -21 29 -7 95 -31 147 -52 52 -22 96 -37 99 -34 3 2 6 39 7 82 1
66 -1 82 -18 100 l-20 23 25 25 c23 23 26 24 33 8 5 -10 7 -28 6 -40 -1 -11 3
-24 9 -28 5 -3 8 -11 5 -16 -10 -15 29 -10 52 6 26 18 39 4 23 -26 -9 -15 -19
-20 -36 -16 -28 5 -31 -1 -7 -18 10 -7 17 -27 17 -49 1 -20 4 -36 7 -36 14 0
16 -41 3 -54 -11 -12 -10 -16 11 -30 31 -21 45 -20 47 2 3 34 4 37 13 39 6 0
9 -3 8 -8 -5 -17 17 -9 29 11 19 30 35 24 34 -12 -1 -28 -5 -34 -31 -38 -50
-9 -36 -35 60 -113 217 -176 395 -444 467 -702 46 -164 59 -256 59 -415 0
-168 -13 -267 -56 -415 -46 -160 -159 -371 -273 -513 -23 -29 -39 -58 -36 -64
4 -7 2 -8 -4 -4 -6 4 -39 -20 -75 -54 -85 -80 -141 -124 -224 -177 -49 -31
-54 -42 -18 -44 14 -1 30 -3 35 -4 6 -1 19 -3 30 -4 18 -1 19 -8 18 -80 l-1
-79 -76 5 c-42 3 -80 9 -85 14 -6 5 -22 9 -36 9 -14 0 -35 7 -47 15 -38 26
-102 29 -178 7 -162 -47 -223 -55 -415 -54 -259 1 -412 35 -627 138 -96 46
-115 52 -95 32 17 -17 15 -44 -4 -63 -15 -14 -17 -14 -30 2 -18 24 -17 31 4
36 13 4 11 5 -5 6 -25 1 -30 20 -11 39 6 6 10 13 7 15 -2 2 -33 25 -69 51 -95
71 -182 145 -221 192 -137 164 -174 209 -174 216 0 4 -9 14 -20 23 -11 9 -14
14 -8 10 9 -4 11 -1 7 9 -3 9 -11 13 -17 9 -6 -4 -8 0 -5 9 8 20 -31 86 -41
70 -4 -7 -20 13 -39 47 -28 50 -30 60 -17 71 12 10 11 20 -10 77 -14 36 -25
75 -26 87 0 11 -3 15 -6 9 -2 -7 -11 -13 -19 -13 -8 0 -11 -7 -8 -17 5 -15 4
-15 -4 -3 -5 8 -13 30 -17 48 -5 25 -3 32 8 32 9 0 17 -6 20 -12 2 -7 7 -10
11 -7 4 4 0 44 -8 89 -19 99 -21 359 -4 461 9 59 9 72 -3 81 -12 8 -12 9 1 5
11 -3 20 18 37 86 12 50 19 95 16 100 -3 6 -1 7 4 4 6 -4 13 -1 16 7 3 8 -5
19 -19 26 -25 14 -32 30 -13 30 5 0 7 4 4 10 -6 10 35 98 80 170 98 157 258
316 415 415 25 16 99 57 165 92 146 78 115 74 -50 -7 -243 -118 -443 -306
-578 -543 -31 -53 -47 -73 -56 -67 -9 5 -10 10 -2 14 13 8 15 26 3 26 -20 0
-53 -42 -47 -61 5 -15 1 -19 -16 -19 -18 0 -19 -2 -9 -15 13 -16 9 -18 -25
-16 -20 2 -20 1 -1 -14 11 -8 28 -15 38 -15 10 0 18 -7 18 -15 0 -8 -4 -15
-10 -15 -5 0 -10 -7 -10 -15 0 -15 -49 -45 -75 -45 -8 0 -15 -4 -15 -10 0 -5
-8 -6 -17 -3 -16 6 -17 5 -3 -11 13 -16 12 -20 -5 -32 -25 -18 -36 -18 -29 1
5 13 3 13 -21 1 -15 -8 -33 -24 -42 -35 -8 -12 -20 -18 -26 -14 -7 3 -3 -3 7
-15 11 -12 16 -23 13 -23 -4 -1 -13 -2 -19 -3 -16 -1 -24 -36 -9 -36 6 0 11
-4 11 -10 0 -16 -27 -11 -34 6 -3 9 -12 14 -20 11 -10 -4 -13 6 -12 40 1 36
-4 49 -23 64 -13 10 -35 19 -50 19 -15 0 -31 4 -37 9 -5 5 -19 12 -31 16 -17
5 -23 2 -23 -10 0 -8 7 -18 15 -21 23 -9 18 -26 -6 -19 -19 6 -21 4 -15 -18 3
-14 9 -33 12 -42 6 -15 4 -16 -14 -6 -15 8 -22 8 -26 -2 -3 -9 -9 -7 -19 6 -8
9 -19 17 -26 17 -6 0 -22 7 -35 16 -16 10 -26 12 -31 5 -3 -6 -13 -11 -21 -11
-11 0 -12 4 -4 19 12 24 13 42 1 22 -9 -14 -41 -9 -41 6 0 4 15 17 33 27 32
20 32 20 7 23 -55 8 -70 14 -70 31 0 14 -2 14 -9 3 -7 -11 -10 -9 -13 10 -2
20 -10 25 -40 27 -51 4 -54 25 -7 46 l40 18 -26 20 c-38 29 -18 41 39 24 36
-11 54 -12 72 -4 27 13 23 29 -6 21 -11 -3 -27 1 -36 8 -19 16 -52 19 -81 8
-15 -6 -25 -4 -30 5 -4 7 -16 16 -26 19 -24 9 -12 27 19 27 19 0 24 5 24 26 0
19 4 25 14 21 8 -3 20 1 27 9 10 12 8 14 -12 12 -15 -2 -23 2 -22 10 3 11 -10
16 -21 10 -2 -2 -13 5 -24 15 -16 15 -28 17 -54 12 -31 -7 -32 -8 -10 -16 26
-10 28 -24 4 -38 -14 -9 -15 -10 -1 -11 22 0 58 -41 42 -47 -7 -3 -13 -11 -13
-18 0 -7 -13 -19 -30 -27 -16 -7 -30 -19 -30 -25 0 -7 -6 -13 -13 -13 -7 0
-30 -9 -51 -20 -22 -10 -43 -17 -47 -14 -13 8 -11 -60 2 -73 8 -8 8 -13 0 -17
-15 -10 -14 -53 1 -58 10 -4 10 -10 0 -32 -16 -35 -16 -158 0 -174 9 -9 9 -12
0 -12 -9 0 -12 -57 -12 -225 0 -226 1 -232 34 -226 19 4 66 -11 66 -21 0 -18
25 -35 63 -42 24 -4 37 -3 37 4 0 7 33 9 96 7 85 -3 96 -2 105 16 14 24 9 28
-41 32 -22 1 -43 5 -47 8 -9 10 31 87 46 87 8 0 23 7 33 17 17 15 18 15 18 0
0 -10 -7 -17 -15 -17 -8 0 -15 -7 -15 -15 0 -9 9 -15 24 -15 32 0 40 13 25 42
-7 13 -15 30 -19 38 -8 16 -23 17 -52 5 -14 -5 -18 -2 -18 14 0 12 6 21 14 21
8 0 16 7 20 15 11 30 54 5 48 -27 -1 -5 6 -8 16 -8 10 0 25 -9 35 -20 11 -14
24 -19 40 -15 19 5 26 -2 47 -47 23 -50 28 -53 65 -56 41 -4 79 -27 69 -43 -9
-15 27 -23 46 -11 14 8 19 8 23 -2 4 -9 41 -15 123 -20 65 -3 119 -8 121 -10
2 -2 12 -31 22 -64 l19 -61 -26 12 c-20 9 -26 9 -30 -1 -2 -6 -15 -12 -29 -12
-17 0 -27 -7 -30 -21 -4 -13 -12 -19 -23 -16 -9 2 -25 -2 -35 -9 -17 -12 -17
-14 -2 -14 9 0 17 6 17 13 0 6 5 4 11 -5 5 -10 21 -18 34 -18 21 0 26 -7 36
-45 l11 -44 52 -3 c35 -2 54 1 62 11 10 12 16 7 33 -28 19 -37 20 -41 5 -33
-21 12 -68 -14 -58 -30 4 -6 2 -13 -4 -17 -7 -4 -8 -12 -2 -21 7 -12 12 -11
29 4 24 22 29 3 7 -26 -10 -13 -15 -15 -24 -6 -9 9 -12 8 -12 -5 0 -9 5 -17
11 -17 5 0 7 -4 4 -10 -3 -5 -1 -10 5 -10 6 0 2 -10 -9 -22 -17 -18 -23 -19
-36 -8 -8 7 -13 21 -10 30 7 22 -20 34 -45 20 -10 -6 -30 -10 -44 -10 -35 0
-44 -20 -9 -21 15 -1 36 -1 46 0 22 3 22 -4 -2 -28 -12 -12 -23 -16 -34 -10
-10 6 -18 5 -22 -1 -3 -5 -37 -10 -74 -10 l-69 0 1 -60 c2 -69 -16 -82 -23
-16 -5 42 -6 44 -38 41 -19 -2 -38 -7 -44 -13 -13 -13 -2 -77 17 -96 8 -8 15
-19 15 -25 0 -6 5 -11 10 -11 6 0 10 5 10 10 0 17 18 11 23 -7 4 -14 5 -13 6
3 1 20 28 41 39 30 2 -3 -1 -19 -7 -37 -6 -17 -8 -36 -4 -42 3 -6 1 -7 -6 -3
-7 5 -15 -4 -22 -23 -11 -30 -29 -43 -29 -20 0 6 -9 9 -19 6 -15 -4 -19 0 -16
16 3 11 1 26 -3 34 -7 11 -12 10 -27 -7 -10 -11 -15 -23 -12 -27 4 -3 0 -15
-10 -25 -9 -11 -11 -18 -5 -18 7 0 12 6 12 13 1 30 28 -27 29 -61 1 -51 15
-97 29 -97 7 0 12 3 12 8 0 4 0 18 0 32 0 16 -6 25 -15 25 -19 0 -19 11 -1 35
14 19 15 18 33 -13 10 -17 21 -32 24 -32 4 0 10 16 13 35 4 19 11 35 16 35 21
0 31 41 22 90 -7 38 -6 50 4 54 19 7 18 25 -2 47 -15 17 -14 18 12 15 16 -2
31 -11 35 -22 7 -18 8 -18 8 1 1 14 4 16 13 7 9 -9 9 -17 0 -34 -18 -36 -45
-159 -44 -197 1 -19 -3 -40 -9 -47 -7 -9 -5 -16 10 -24 13 -7 21 -21 21 -38
l0 -27 15 29 c8 15 15 38 15 49 0 20 0 20 14 1 9 -12 11 -23 5 -29 -5 -5 -9
-15 -9 -22 0 -15 26 -18 33 -3 3 6 4 5 3 -2 -1 -7 -15 -14 -29 -16 -27 -3 -36
-25 -16 -37 7 -5 5 -15 -6 -32 -16 -24 -16 -25 4 -18 11 3 29 2 39 -4 13 -7
22 -7 29 0 6 6 21 9 34 6 21 -4 21 -4 -5 -6 -25 -1 -27 -3 -15 -19 7 -9 9 -14
5 -10 -5 4 -15 0 -21 -9 -11 -15 -15 -15 -29 -4 -9 8 -18 12 -19 10 -1 -2 -9
-17 -17 -32 -21 -43 -44 -31 -48 26 -2 31 1 47 9 47 7 0 9 9 5 28 -12 46 -30
82 -43 82 -14 0 -17 -15 -14 -68 1 -26 -5 -40 -30 -61 l-31 -27 31 -31 c17
-18 31 -36 31 -41 0 -5 -20 -27 -44 -49 -31 -28 -48 -37 -55 -30 -7 7 -7 16 0
29 5 10 6 18 1 18 -5 0 -15 -11 -22 -25 -10 -20 -11 -28 -2 -37 17 -17 15 -33
-3 -18 -8 7 -15 18 -15 26 0 22 -22 28 -37 9 -12 -18 -13 -17 -13 8 0 15 5 27
11 27 18 0 6 55 -13 58 -10 2 -18 -3 -18 -10 0 -13 -51 -58 -65 -58 -15 0 -1
29 26 53 25 21 29 30 20 41 -7 8 -20 12 -30 9 -10 -3 -22 0 -25 6 -4 6 -12 11
-18 11 -6 0 -1 -12 13 -26 21 -23 22 -26 5 -23 -32 6 -44 36 -22 56 13 13 20
15 23 6 3 -7 8 -13 13 -13 9 0 24 48 21 66 0 6 6 17 14 24 17 14 20 76 4 86
-7 4 -9 0 -5 -13 4 -11 0 -32 -8 -48 -14 -27 -14 -27 -28 -6 -15 25 -38 28
-38 5 0 -9 -6 -14 -13 -11 -25 9 -37 -9 -42 -64 -3 -30 -10 -56 -15 -57 -6 -2
-10 -10 -10 -18 0 -14 12 -18 38 -15 17 3 12 -31 -6 -37 -6 -2 -22 7 -34 21
-21 23 -22 23 -40 5 -10 -10 -18 -22 -18 -27 0 -13 -39 -21 -46 -9 -9 13 -63
2 -86 -18 -9 -9 -15 -21 -12 -26 3 -5 0 -8 -7 -7 -8 1 -27 -3 -44 -10 -16 -6
-33 -10 -37 -9 -4 2 -15 -7 -23 -19 -9 -13 -23 -23 -31 -23 -17 0 -19 17 -1
23 7 2 8 8 3 13 -5 5 -11 4 -13 -3 -3 -7 -16 -13 -29 -13 l-24 0 0 -144 c0
-119 3 -145 15 -150 8 -3 15 -13 15 -22 0 -13 -3 -14 -15 -4 -13 11 -15 -20
-15 -265 l0 -278 113 7 c61 4 226 7 366 7 236 1 255 2 274 20 24 22 33 24 43
8 3 -6 0 -15 -7 -20 -9 -6 81 -8 234 -5 137 2 251 7 255 11 4 4 -27 5 -68 1
-41 -3 -91 -2 -110 3 l-35 9 45 1 c41 2 43 3 26 16 -24 18 -14 45 16 45 24 0
56 16 48 23 -10 9 -80 -6 -80 -17 0 -7 -40 -12 -130 -13 l-130 -1 0 34 c0 27
6 36 29 48 16 9 31 22 34 31 4 8 13 15 22 15 8 0 15 4 15 10 0 5 11 12 25 16
30 7 33 24 5 24 -11 0 -23 6 -26 14 -3 8 -13 12 -25 9 -13 -4 -19 0 -19 11 0
9 -7 16 -15 16 -8 0 -15 -7 -15 -15 0 -22 -17 -18 -34 7 -19 27 -21 65 -3 71
9 3 9 7 0 19 -11 12 -9 17 13 26 14 7 31 12 39 12 7 0 17 9 20 20 7 24 23 26
31 5 9 -23 41 -18 47 7 7 24 -3 41 -10 21 -6 -18 -33 -16 -33 2 0 7 8 19 18
24 10 6 12 11 4 11 -41 1 -2 80 39 80 16 0 17 -4 9 -26 -15 -40 -12 -40 24 -5
23 22 32 39 29 52 -4 15 0 19 21 19 18 0 30 8 38 25 10 23 30 30 68 25 12 -1
12 1 3 10 -6 7 -9 19 -6 26 3 8 -1 14 -11 14 -9 0 -16 5 -16 11 0 6 7 8 17 4
15 -5 16 -4 5 6 -13 14 -16 30 -4 27 8 -2 63 12 76 20 5 3 0 12 -10 20 -14 11
-15 13 -3 9 9 -3 29 1 44 9 20 10 32 11 39 4 15 -15 29 -12 23 5 -4 8 -2 17 3
20 15 9 12 25 -5 25 -8 0 -15 4 -15 9 0 5 -10 12 -22 14 -22 4 -22 4 2 6 19 2
12 7 -30 21 -30 11 -67 20 -82 20 -37 0 -27 26 13 34 40 8 59 28 59 64 0 26 8
34 55 61 43 24 57 38 62 61 3 17 8 30 12 30 17 -1 31 -18 26 -32 -5 -12 0 -14
22 -10 25 5 27 4 14 -11 -9 -12 -10 -21 -4 -30 15 -17 36 -115 30 -132 -4 -9
-24 -15 -58 -17 -31 -2 -54 -8 -57 -15 -2 -7 4 -13 12 -13 9 0 19 -7 22 -15 4
-8 14 -15 23 -15 14 0 14 -2 1 -10 -13 -9 -13 -11 0 -20 13 -9 13 -12 -2 -20
-28 -17 -10 -40 31 -40 27 0 32 -3 21 -10 -11 -7 -5 -10 23 -10 62 0 89 -42
55 -87 -5 -7 -9 -22 -7 -35 1 -13 -1 -31 -5 -40 -13 -28 -2 -51 33 -75 40 -27
86 -31 77 -8 -8 21 19 19 72 -5 23 -10 41 -25 40 -31 -4 -19 42 -39 88 -39 35
0 45 -5 66 -32 28 -37 40 -75 44 -134 1 -23 8 -60 14 -84 9 -35 9 -45 -4 -59
-22 -24 -20 -41 5 -41 20 0 21 -4 17 -75 l-3 -75 81 0 c81 0 83 1 92 28 l9 27
13 -27 13 -28 751 -1 c596 -1 1983 -1 2019 1 12 0 9 1160 -3 1160 -17 0 -23
-29 -11 -44 15 -18 -15 -31 -34 -16 -10 8 -15 6 -20 -9 -3 -12 -11 -21 -17
-21 -6 0 -8 -12 -5 -27 9 -49 -5 -56 -25 -12 -21 48 -18 69 10 69 19 0 72 52
72 71 0 5 -4 8 -9 4 -5 -3 -12 -1 -15 4 -4 5 -1 13 5 16 5 4 8 13 5 21 -3 8 1
14 11 14 27 0 42 32 43 88 0 40 -4 52 -15 52 -8 0 -15 5 -15 10 0 6 -12 8 -27
5 -23 -4 -25 -4 -8 4 11 5 16 10 10 10 -5 1 -4 5 4 10 18 11 5 31 -20 31 -11
0 -19 7 -19 16 0 14 -1 14 -16 0 -20 -20 -34 -20 -34 -1 0 8 4 15 8 15 5 0 17
18 27 40 27 60 49 46 29 -19 -6 -21 -4 -23 14 -19 15 4 22 2 22 -8 0 -7 9 -18
20 -24 19 -10 20 -8 20 90 0 77 -3 101 -13 98 -6 -3 -13 -24 -15 -49 -2 -24
-8 -48 -14 -54 -7 -7 -8 -3 -3 13 4 13 2 29 -5 37 -6 8 -13 26 -14 40 -3 21 2
27 28 33 30 8 31 10 34 75 3 62 1 67 -18 67 -11 0 -20 5 -20 10 0 15 -30 12
-36 -4 -4 -11 -12 -11 -44 -2 -21 6 -42 15 -46 19 -12 12 -24 8 -24 -8 0 -33
-45 -1 -55 38 -8 32 -9 32 -40 11 -15 -10 -32 -13 -46 -9 -13 4 -24 2 -29 -5
-5 -9 -31 -13 -74 -12 -36 1 -68 -3 -71 -8 -9 -14 -45 -12 -45 3 0 8 -17 12
-51 12 -35 0 -53 4 -60 15 -8 13 -10 13 -19 -2 -6 -9 -17 -15 -25 -12 -9 4
-15 0 -15 -7 0 -8 -6 -5 -15 7 -13 18 -14 16 -15 -23 0 -24 5 -43 10 -43 6 0
10 5 10 12 0 6 3 9 6 6 3 -4 0 -17 -7 -30 -16 -28 -12 -67 8 -90 15 -17 14
-18 -3 -18 -22 0 -64 71 -64 108 0 12 -7 25 -16 29 -9 3 -13 12 -9 21 3 8 -2
36 -10 62 -11 32 -15 74 -13 126 3 72 4 77 15 51 7 -15 17 -27 23 -27 12 0 13
17 1 24 -5 3 -9 27 -8 52 0 36 5 48 19 52 10 2 18 10 18 18 0 17 80 17 86 -1
6 -13 25 -16 72 -9 23 4 32 10 32 24 0 11 -5 20 -12 20 -16 0 23 29 40 30 17
0 15 -20 -4 -41 -9 -10 -13 -23 -9 -28 9 -16 118 -3 128 15 13 24 26 6 23 -32
-3 -38 9 -56 17 -25 3 12 12 17 28 15 13 -1 32 -3 42 -3 14 -1 16 -7 11 -28
-4 -16 -15 -36 -26 -46 -10 -10 -16 -22 -13 -28 4 -5 -1 -9 -9 -9 -8 0 -17 -8
-19 -18 -4 -13 -5 -11 -6 6 0 12 4 22 9 22 6 0 10 5 10 11 0 5 -5 7 -11 3 -6
-3 -15 -1 -19 6 -6 9 -13 9 -31 -2 -13 -7 -27 -17 -31 -23 -5 -6 -11 -6 -19 2
-8 8 -18 9 -31 2 -10 -5 -18 -6 -18 -2 0 4 -5 1 -10 -7 -5 -8 -13 -15 -17 -16
-4 0 -20 -6 -34 -12 -15 -6 -37 -8 -48 -5 -14 3 -21 1 -19 -6 2 -6 -8 -17 -22
-24 -14 -7 -25 -17 -25 -22 0 -6 -4 -16 -8 -22 -10 -16 -23 -15 233 -14 118 1
275 2 348 2 l132 -1 0 103 c0 56 -3 112 -6 125 -6 23 -34 31 -34 10 0 -6 -3
-8 -6 -5 -4 4 -2 13 5 20 6 8 9 22 5 31 -4 12 0 16 15 16 19 0 21 6 21 59 0
33 -4 71 -10 85 -6 17 -6 26 0 26 6 0 10 23 10 52 0 50 -1 51 -19 34 -22 -20
-33 -10 -24 22 3 13 13 22 24 22 14 0 19 7 19 25 0 18 -5 25 -20 25 -24 0 -90
62 -90 84 0 8 -9 22 -21 30 -25 17 -16 40 13 32 21 -5 68 19 68 35 0 15 -29
10 -38 -7 -14 -26 -35 -8 -21 18 8 15 8 19 0 13 -25 -15 -73 6 -86 38 -12 30
-12 33 13 49 14 9 30 14 35 11 5 -3 13 0 17 7 10 17 30 4 30 -20 0 -22 28 -34
46 -19 9 7 11 17 5 28 -7 13 -3 21 20 36 23 16 29 27 28 55 0 19 -3 29 -6 23
-6 -16 -49 -17 -58 -3 -4 6 -15 8 -26 5 -12 -4 -19 -2 -19 7 0 24 16 39 34 32
16 -6 17 -4 7 14 -7 12 -16 22 -21 22 -5 0 -9 10 -7 22 1 14 -4 23 -15 26 -13
2 -18 -3 -18 -17 0 -12 5 -21 10 -21 6 0 10 -13 10 -30 0 -20 -5 -30 -15 -30
-8 0 -15 9 -15 19 0 20 -25 35 -41 25 -5 -3 -9 -14 -9 -25 0 -12 -7 -19 -19
-19 -11 0 -22 -4 -26 -10 -3 -5 -13 -6 -22 -3 -13 5 -12 8 7 15 17 6 20 11 11
21 -8 11 -5 17 14 27 14 7 25 19 25 27 0 7 6 13 13 13 6 0 20 7 30 14 16 12
17 18 7 37 -9 15 -14 18 -20 9 -5 -8 -10 -9 -14 -2 -3 6 2 13 12 17 14 4 18
12 15 29 -4 19 0 25 18 29 l24 4 -24 2 c-17 1 -22 5 -17 17 4 11 -4 26 -21 43
-28 27 -32 59 -9 73 6 4 -8 8 -31 8 -57 0 -99 43 -55 56 9 3 32 12 49 21 26
13 30 19 22 30 -13 15 -33 18 -24 3 3 -6 -1 -13 -10 -16 -14 -6 -65 36 -65 53
0 4 -10 17 -22 30 -21 23 -21 23 -1 23 12 0 24 -7 27 -16 5 -13 9 -14 22 -3
14 11 14 13 0 21 -9 5 -16 15 -16 23 0 7 -8 16 -17 18 -10 3 7 3 37 1 35 -3
50 -1 41 4 -8 6 -11 17 -6 31 4 14 2 21 -7 21 -7 1 -25 17 -39 38 -18 27 -32
37 -52 37 -16 0 -25 -5 -23 -11 5 -13 -25 -15 -41 -2 -7 5 -14 5 -18 -2 -10
-16 -35 -12 -29 5 5 11 -2 15 -26 15 -32 0 -32 1 -27 35 5 32 3 36 -26 49 -18
7 -48 30 -67 51 -19 20 -47 43 -62 51 -33 17 -36 34 -8 34 11 0 20 7 20 15 0
8 6 14 13 12 6 -1 12 7 12 18 0 14 8 21 28 23 15 2 39 9 53 17 l26 13 -24 8
c-12 4 -31 7 -40 5 -10 -1 -18 3 -18 9 0 7 -13 10 -32 8 -30 -3 -33 -1 -30 22
1 19 0 22 -8 10 -8 -13 -11 -13 -26 2 -16 16 -16 19 -1 50 l17 33 0 -27 c0
-17 5 -28 14 -28 17 0 29 27 16 35 -17 10 -11 22 13 29 22 6 22 7 3 21 -11 8
-27 15 -36 15 -9 0 -22 11 -28 24 -8 19 -7 26 9 39 25 22 24 37 -1 37 -26 0
-25 13 4 47 19 22 26 25 38 15 11 -9 17 -9 27 1 9 9 16 7 29 -11 10 -13 21
-20 25 -16 12 12 8 24 -8 24 -8 0 -15 4 -15 9 0 5 -31 19 -69 31 -52 17 -71
28 -75 43 -3 12 0 24 6 28 21 13 -4 29 -48 29 -40 0 -45 2 -39 19 7 23 -10 38
-19 16 -6 -16 -41 -20 -51 -6 -7 12 22 41 39 41 8 0 19 6 25 13 6 8 23 12 40
9 16 -2 37 1 48 6 17 10 17 11 -2 18 -27 11 -66 57 -53 65 6 4 19 4 29 2 10
-3 26 -3 34 1 13 5 13 9 3 27 -7 12 -24 33 -38 47 -23 24 -23 26 -5 33 11 4
30 8 43 8 l22 1 -20 20 c-11 11 -29 20 -40 20 -11 0 -20 5 -20 10 0 16 -42 11
-63 -7 -11 -10 -17 -12 -13 -5 4 7 2 19 -4 27 -15 17 -5 36 15 28 8 -3 15 0
15 6 0 6 -4 11 -10 11 -5 0 -10 7 -10 15 0 8 -7 15 -15 15 -8 0 -15 -4 -15
-10 0 -5 -7 -10 -15 -10 -8 0 -15 5 -15 10 0 6 -98 10 -277 9 -153 -1 -268 -4
-255 -6z m12 -41 c0 -4 -5 -13 -12 -20 -18 -18 -28 -15 -28 8 0 13 7 20 20 20
11 0 20 -4 20 -8z m490 -17 c0 -8 9 -19 21 -25 27 -15 19 -23 -14 -14 -27 6
-44 35 -32 54 8 13 25 3 25 -15z m144 -91 c4 -10 1 -14 -6 -12 -15 5 -23 28
-10 28 5 0 13 -7 16 -16z m26 -39 c18 -22 7 -28 -23 -12 -15 8 -24 17 -20 20
11 12 30 8 43 -8z m-755 -126 c11 -17 -1 -21 -15 -4 -8 9 -8 15 -2 15 6 0 14
-5 17 -11z m540 -19 c-3 -5 -10 -10 -16 -10 -5 0 -9 5 -9 10 0 6 7 10 16 10 8
0 12 -4 9 -10z m-5 -33 c0 -12 -34 -47 -45 -47 -3 0 -5 14 -5 30 0 25 4 30 25
30 14 0 25 -6 25 -13z m-537 -41 c6 -15 -1 -26 -15 -26 -4 0 -8 9 -8 20 0 23
15 27 23 6z m-18 -56 c3 -5 1 -10 -4 -10 -6 0 -11 5 -11 10 0 6 2 10 4 10 3 0
8 -4 11 -10z m721 -10 c26 0 53 -45 36 -62 -8 -8 -15 -8 -26 1 -8 7 -20 10
-26 6 -7 -5 -9 2 -4 22 7 25 6 27 -9 15 -18 -16 -37 -8 -37 15 0 11 6 14 23 9
12 -3 31 -6 43 -6z m-702 -35 c-6 -16 -24 -21 -24 -7 0 11 11 22 21 22 5 0 6
-7 3 -15z m771 -65 c3 -5 1 -10 -4 -10 -6 0 -11 5 -11 10 0 6 2 10 4 10 3 0 8
-4 11 -10z m-1470 -160 c3 -5 1 -10 -4 -10 -6 0 -11 5 -11 10 0 6 2 10 4 10 3
0 8 -4 11 -10z m-65 -20 c0 -5 -4 -10 -10 -10 -5 0 -10 5 -10 10 0 6 5 10 10
10 6 0 10 -4 10 -10z m1573 -42 c-5 -10 -33 10 -33 23 0 5 9 4 19 -3 11 -7 17
-16 14 -20z m60 -153 c1 -5 -6 -11 -15 -13 -11 -2 -18 3 -18 13 0 17 30 18 33
0z m-704 -25 c-22 -14 -34 2 -13 17 13 10 20 10 23 2 2 -6 -3 -15 -10 -19z
m611 15 c0 -8 -4 -15 -10 -15 -5 0 -7 7 -4 15 4 8 8 15 10 15 2 0 4 -7 4 -15z
m-35 -25 c3 -5 -1 -10 -9 -10 -9 0 -16 5 -16 10 0 6 4 10 9 10 6 0 13 -4 16
-10z m-768 -6 c-3 -3 -12 -4 -19 -1 -8 3 -5 6 6 6 11 1 17 -2 13 -5z m133 -12
c0 -4 -5 -13 -12 -20 -18 -18 -28 -15 -28 8 0 13 7 20 20 20 11 0 20 -4 20 -8z
m-667 -59 c-7 -2 -21 -2 -30 0 -10 3 -4 5 12 5 17 0 24 -2 18 -5z m1696 -222
c11 -7 9 -10 -8 -16 -25 -8 -36 -2 -26 14 8 13 15 14 34 2z m94 -5 c7 -17 -18
-40 -32 -31 -7 4 -6 12 2 25 14 24 23 25 30 6z m-1348 -16 c3 -5 -1 -10 -10
-10 -9 0 -13 5 -10 10 3 6 8 10 10 10 2 0 7 -4 10 -10z m791 -197 c-10 -10
-19 5 -10 18 6 11 8 11 12 0 2 -7 1 -15 -2 -18z m401 -90 c-9 -9 -20 -13 -24
-9 -4 4 1 14 11 22 25 18 35 8 13 -13z m-357 -3 c9 -17 8 -20 -13 -20 -30 0
-40 10 -26 27 16 18 26 16 39 -7z m-120 -5 c-7 -8 -14 -15 -15 -15 -2 0 -5 7
-9 15 -4 10 1 15 16 15 17 0 18 -2 8 -15z m595 -45 c-3 -5 -10 -10 -16 -10 -5
0 -9 5 -9 10 0 6 7 10 16 10 8 0 12 -4 9 -10z m109 1 c4 -5 1 -11 -5 -13 -9
-3 -9 -9 0 -26 10 -19 7 -25 -26 -56 -30 -28 -46 -35 -78 -35 -37 0 -39 1 -21
14 11 8 28 13 37 10 10 -3 19 1 23 10 3 8 13 15 22 15 16 0 16 1 0 19 -16 17
-16 20 6 45 25 28 34 31 42 17z m-102 -43 c-9 -9 -15 -9 -24 0 -9 9 -7 12 12
12 19 0 21 -3 12 -12z m-111 -46 c7 -18 5 -22 -10 -22 -10 0 -24 -7 -31 -15
-17 -21 -54 -15 -58 9 -3 11 0 16 7 12 6 -4 23 4 38 19 32 29 43 28 54 -3z
m-3 -108 c-10 -11 -23 -14 -35 -10 -17 7 -16 9 6 27 30 24 55 9 29 -17z m117
28 c6 -4 12 -17 12 -29 2 -20 -2 -22 -30 -16 -41 8 -73 33 -55 45 16 10 60 10
73 0z m-3603 -99 c-6 -3 -10 -8 -7 -13 3 -4 -2 -13 -10 -20 -10 -9 -15 -9 -15
-1 0 6 4 11 9 11 10 0 8 21 -5 55 -7 17 -5 16 17 -4 16 -16 20 -25 11 -28z
m3302 -98 c-4 -8 -11 -15 -17 -15 -16 0 25 -41 51 -51 28 -11 21 -28 -11 -27
-31 0 -120 20 -131 29 -4 4 1 10 13 14 12 3 21 11 21 17 0 6 9 8 20 5 17 -4
20 -2 15 13 -4 12 0 20 12 23 31 8 33 7 27 -8z m472 -10 c4 -8 12 -15 20 -15
8 0 14 -7 14 -15 0 -8 -4 -15 -9 -15 -5 0 -17 -3 -27 -7 -14 -5 -16 -2 -12 15
5 17 2 22 -12 22 -20 0 -33 13 -23 24 12 12 44 6 49 -9z m-731 -15 c3 -5 2
-10 -4 -10 -5 0 -13 5 -16 10 -3 6 -2 10 4 10 5 0 13 -4 16 -10z m855 -26 c0
-17 -22 -14 -28 4 -2 7 3 12 12 12 9 0 16 -7 16 -16z m-620 -64 c-20 -13 -43
-13 -35 0 3 6 16 10 28 10 18 0 19 -2 7 -10z m190 -39 c0 -26 -4 -29 -35 -33
-45 -5 -62 12 -36 36 11 10 24 16 28 13 5 -3 15 -2 23 4 20 12 20 13 20 -20z
m-4250 -11 c0 -11 -2 -20 -4 -20 -2 0 -11 -3 -20 -6 -9 -3 -16 -1 -16 5 0 6 7
11 15 11 9 0 12 6 9 15 -4 8 -1 15 5 15 6 0 11 -9 11 -20z m605 10 c-3 -5 -10
-10 -16 -10 -5 0 -9 5 -9 10 0 6 7 10 16 10 8 0 12 -4 9 -10z m3719 -5 c-4 -8
-1 -15 5 -15 6 0 11 7 11 15 0 8 9 15 20 15 18 0 19 -3 10 -21 -15 -27 -7 -33
38 -31 27 2 33 0 22 -8 -8 -5 -23 -10 -32 -10 -10 0 -27 -9 -39 -21 -19 -19
-24 -20 -45 -8 -25 13 -32 29 -12 29 6 0 4 8 -7 20 -21 23 -13 50 14 50 14 0
19 -5 15 -15z m-4204 -25 c0 -5 -7 -10 -16 -10 -8 0 -12 5 -9 10 3 6 10 10 16
10 5 0 9 -4 9 -10z m60 1 c0 -5 -16 -19 -36 -31 -35 -20 -36 -22 -18 -34 10
-7 32 -16 49 -20 16 -4 47 -21 69 -36 32 -24 36 -31 22 -36 -9 -3 -23 -1 -31
6 -18 15 -19 9 -3 -25 7 -15 19 -25 33 -25 29 0 131 -65 116 -74 -6 -4 -20 -4
-31 -1 -28 9 -25 -13 6 -41 33 -31 23 -49 -16 -29 -16 8 -35 12 -44 9 -8 -3
-23 -1 -35 5 -16 9 -21 8 -25 -7 -10 -30 -51 -47 -81 -34 -32 15 -32 32 0 32
14 0 25 -5 25 -11 0 -6 11 2 24 18 43 52 36 109 -13 96 -13 -3 -23 0 -27 10
-3 8 -22 18 -42 22 -25 5 -32 9 -22 15 8 5 11 12 7 16 -4 4 -16 -2 -27 -14
-24 -26 -19 -25 -59 -11 -32 11 -42 29 -16 29 8 0 15 7 15 15 0 8 8 15 19 15
28 0 47 26 31 45 -7 8 -18 15 -25 15 -7 0 -15 7 -19 15 -4 10 2 15 17 17 12 0
28 2 35 2 7 1 16 6 20 12 7 11 61 43 75 44 4 0 7 -4 7 -9z m225 -51 c3 -5 1
-10 -4 -10 -6 0 -11 5 -11 10 0 6 2 10 4 10 3 0 8 -4 11 -10z m46 -83 c-13
-13 -66 37 -56 53 5 8 16 3 36 -16 18 -17 26 -31 20 -37z m-691 4 c0 -5 -11
-8 -25 -8 -14 0 -25 3 -25 8 0 5 11 9 25 9 14 0 25 -4 25 -9z m215 0 c-3 -5
-1 -12 5 -16 24 -15 6 -25 -44 -25 -52 0 -93 19 -44 20 13 1 37 7 53 15 38 17
37 17 30 6z m383 -22 c-2 -6 -8 -10 -13 -10 -5 0 -11 4 -13 10 -2 6 4 11 13
11 9 0 15 -5 13 -11z m-368 -58 c0 -11 3 -26 6 -35 3 -9 1 -16 -5 -16 -6 0
-11 7 -11 16 0 14 -3 14 -15 4 -8 -7 -15 -9 -15 -5 0 5 -9 0 -20 -10 -15 -13
-24 -15 -31 -8 -13 13 -4 33 15 33 7 0 21 9 31 20 23 25 45 26 45 1z m135 -31
c3 -6 -1 -17 -9 -26 -24 -24 -11 -32 36 -23 68 13 69 12 56 -16 -11 -24 -28
-34 -28 -16 0 4 -31 8 -68 8 -64 0 -142 19 -142 34 0 3 17 7 38 7 66 0 71 2
77 22 7 21 30 27 40 10z m-371 -66 c5 -13 15 -15 46 -10 25 4 40 2 40 -4 0 -5
-8 -10 -17 -10 -9 0 -25 -8 -35 -17 -24 -22 -50 -8 -55 30 -4 29 11 37 21 11z
m4765 -68 c9 -10 8 -15 -4 -20 -10 -4 -15 1 -15 14 0 24 4 25 19 6z m-3979
-128 c0 -21 -22 -33 -46 -24 -12 5 -13 10 -6 19 7 8 7 18 2 27 -14 22 11 32
32 13 10 -9 18 -25 18 -35z m-720 12 c0 -5 -18 -10 -40 -10 -22 0 -40 5 -40
10 0 6 18 10 40 10 22 0 40 -4 40 -10z m810 -36 c0 -19 -46 -19 -53 0 -4 10
-1 13 7 10 8 -3 17 0 21 5 8 14 25 4 25 -15z m3430 -29 c0 -16 -27 -32 -37
-22 -3 4 -3 13 0 22 8 20 37 20 37 0z m430 -65 c0 -5 -7 -7 -15 -4 -10 4 -18
-3 -25 -20 -10 -28 -20 -34 -20 -13 0 19 39 59 51 52 5 -4 9 -10 9 -15z m139
11 c16 -10 6 -31 -15 -31 -8 0 -14 -8 -15 -17 -1 -18 -16 19 -18 45 -1 14 27
16 48 3z m-3719 -447 c0 -10 -45 -42 -52 -37 -5 2 -8 12 -8 21 0 12 9 18 30
19 17 1 30 0 30 -3z m-75 -24 c-3 -5 -12 -10 -18 -10 -7 0 -6 4 3 10 19 12 23
12 15 0z m1 -57 c-10 -10 -19 5 -10 18 6 11 8 11 12 0 2 -7 1 -15 -2 -18z
m3534 12 c0 -8 -7 -15 -15 -15 -16 0 -20 12 -8 23 11 12 23 8 23 -8z m-240 1
c0 -3 -4 -8 -10 -11 -5 -3 -10 -1 -10 4 0 6 5 11 10 11 6 0 10 -2 10 -4z m460
-17 c0 -5 -7 -9 -15 -9 -15 0 -20 12 -9 23 8 8 24 -1 24 -14z m-180 -33 c0 -8
3 -21 6 -30 3 -9 1 -16 -5 -16 -6 0 -11 5 -11 12 0 6 -7 20 -17 30 -15 17 -15
18 5 18 12 0 22 -6 22 -14z m124 5 c6 -9 -44 -35 -52 -26 -6 5 27 34 40 35 4
0 9 -4 12 -9z m74 -20 c4 -23 -15 -54 -27 -46 -4 2 -5 -9 -3 -26 3 -17 0 -29
-7 -29 -15 0 -14 55 1 97 13 37 31 39 36 4z m-479 2 c-10 -2 -19 -19 -23 -44
-6 -36 -8 -38 -26 -29 -13 7 -20 21 -20 40 0 30 12 38 60 38 14 0 18 -2 9 -5z
m371 -32 c0 -12 -29 -23 -41 -15 -18 10 -9 24 16 24 14 0 25 -4 25 -9z m30
-12 c0 -5 -4 -9 -10 -9 -5 0 -10 7 -10 16 0 8 5 12 10 9 6 -3 10 -10 10 -16z
m-180 -17 c0 -12 -3 -12 -17 -1 -10 7 -20 14 -22 16 -2 1 6 1 18 0 11 -1 21
-8 21 -15z m-120 -2 c0 -5 -2 -10 -4 -10 -3 0 -8 5 -11 10 -3 6 -1 10 4 10 6
0 11 -4 11 -10z m165 -45 c-1 -30 1 -55 5 -55 4 0 10 -13 12 -29 6 -42 -17
-29 -30 17 -18 62 -21 99 -9 111 20 20 24 12 22 -44z m-248 -10 c28 -1 37 -10
21 -22 -8 -7 -22 -7 -35 -2 -18 6 -23 16 -22 41 1 30 2 31 8 8 5 -17 14 -25
28 -25z m365 14 c5 -3 3 -11 -4 -17 -10 -8 -13 -3 -15 21 0 18 1 25 4 17 3 -8
10 -18 15 -21z m-538 -28 c-2 -2 -11 2 -19 9 -13 11 -13 15 -3 21 8 5 15 2 19
-9 4 -9 5 -19 3 -21z m-189 0 c-3 -6 -11 -8 -17 -5 -6 4 -5 9 3 15 16 10 23 4
14 -10z m277 5 c10 5 10 4 1 -6 -13 -14 -43 -7 -43 11 0 8 4 8 15 -1 8 -6 20
-8 27 -4z m233 4 c-3 -5 -11 -10 -16 -10 -6 0 -7 5 -4 10 3 6 11 10 16 10 6 0
7 -4 4 -10z m-397 -45 c0 -25 -4 -45 -9 -45 -5 0 -9 8 -9 19 0 10 -7 24 -15
31 -17 14 -21 35 -5 25 6 -3 10 -1 10 4 0 6 6 11 13 11 10 0 14 -14 15 -45z
m442 20 c0 -7 8 -18 17 -24 10 -5 14 -13 10 -17 -4 -5 -19 4 -32 19 -29 30
-31 37 -10 37 8 0 15 -7 15 -15z m95 5 c3 -5 1 -10 -4 -10 -6 0 -11 5 -11 10
0 6 2 10 4 10 3 0 8 -4 11 -10z m-136 -40 c12 0 44 -50 37 -58 -4 -3 -15 4
-26 16 -12 12 -25 22 -29 22 -10 0 -21 47 -12 55 3 3 9 -3 13 -15 4 -11 11
-20 17 -20z m-194 20 c22 -8 24 -12 13 -29 -13 -21 -42 -17 -34 5 8 22 -14 16
-35 -8 l-18 -23 -1 23 c0 12 -6 22 -12 22 -9 0 -8 4 2 10 19 12 52 13 85 0z
m143 -18 c2 -14 -2 -22 -11 -22 -15 0 -29 34 -19 45 11 11 27 -2 30 -23z
m-255 11 c4 -3 2 -12 -4 -19 -16 -19 -3 -47 32 -66 40 -24 52 -23 39 2 -6 11
-9 20 -8 21 2 0 16 2 31 4 28 4 28 3 13 -20 -20 -30 -20 -45 -1 -45 18 0 50
30 51 48 1 6 2 18 3 26 0 7 9 16 20 19 13 3 17 0 14 -12 -6 -25 14 -71 32 -71
18 0 20 21 3 39 -11 11 -10 13 2 9 8 -3 23 2 33 10 13 11 20 13 29 4 8 -8 3
-17 -18 -36 l-29 -25 27 -23 c14 -13 31 -33 37 -45 17 -34 -7 -40 -35 -9 -14
14 -20 26 -14 26 5 0 10 5 10 10 0 14 -11 12 -34 -5 -19 -14 -18 -15 7 -35 22
-18 25 -27 25 -76 -1 -44 -5 -54 -17 -52 -20 4 -40 70 -23 76 17 5 15 28 -4
46 -12 13 -20 14 -36 5 -18 -10 -20 -9 -14 6 3 10 -2 27 -14 42 -14 18 -20 21
-20 10 0 -9 5 -19 10 -22 11 -7 14 -45 4 -45 -4 0 -13 8 -20 18 -10 13 -13 14
-14 3 0 -8 6 -22 14 -30 13 -14 13 -19 0 -36 -9 -12 -18 -16 -22 -10 -10 14
-61 39 -67 34 -2 -3 -5 -33 -7 -67 l-2 -62 -23 37 c-13 21 -24 42 -26 46 -1 5
-15 3 -30 -4 -35 -16 -49 0 -40 46 9 46 22 66 23 33 0 -15 5 -30 10 -33 6 -3
10 -1 10 6 0 6 8 18 18 25 16 13 15 14 -6 20 -20 6 -21 8 -6 18 14 11 10 14
-25 28 -42 17 -52 34 -26 44 8 4 15 14 15 24 0 10 6 23 14 30 8 6 12 18 9 26
-3 10 2 14 19 14 14 0 28 -3 31 -7z m471 -34 c-1 -13 3 -27 8 -30 6 -4 8 -15
6 -25 -4 -16 -7 -15 -16 9 -22 53 -26 80 -11 75 8 -3 13 -16 13 -29z m-624 11
c0 -5 -2 -10 -4 -10 -3 0 -8 5 -11 10 -3 6 -1 10 4 10 6 0 11 -4 11 -10z m-83
-15 c0 -8 -9 -15 -19 -15 -11 0 -16 -4 -13 -10 9 -15 75 -13 75 3 1 7 7 4 15
-7 9 -11 20 -16 31 -12 13 5 15 2 11 -14 -3 -11 -1 -20 4 -20 5 0 9 -6 9 -14
0 -8 5 -16 12 -18 9 -3 19 -68 11 -68 -22 0 -93 51 -93 68 0 15 -60 6 -72 -11
-11 -15 -18 -16 -47 -6 -29 10 -35 9 -43 -5 -12 -22 -28 -20 -28 3 0 11 -13
25 -32 35 -30 16 -30 17 -6 12 14 -3 34 -9 44 -13 13 -5 15 -3 9 7 -6 10 -2
11 19 6 18 -4 34 -2 43 6 14 11 15 10 8 -11 -5 -17 -4 -21 5 -16 11 7 9 25 -6
78 -4 11 0 17 10 17 9 0 16 5 16 10 0 6 8 10 18 10 10 0 19 -7 19 -15z m750
-7 c-3 -8 -6 -5 -6 6 -1 11 2 17 5 13 3 -3 4 -12 1 -19z m-852 2 c3 -5 1 -10
-4 -10 -6 0 -11 5 -11 10 0 6 2 10 4 10 3 0 8 -4 11 -10z m925 -10 c0 -5 -2
-10 -4 -10 -3 0 -8 5 -11 10 -3 6 -1 10 4 10 6 0 11 -4 11 -10z m-950 -25 c0
-8 -4 -15 -10 -15 -5 0 -10 7 -10 15 0 8 5 15 10 15 6 0 10 -7 10 -15z m827
-34 c17 -50 13 -92 -5 -48 -6 15 -15 27 -19 27 -5 0 -9 16 -10 36 -2 47 15 40
34 -15z m93 12 c0 -7 5 -13 10 -13 6 0 10 5 10 11 0 5 5 7 10 4 6 -4 16 -2 23
3 9 8 20 5 37 -8 15 -12 19 -20 11 -20 -8 0 -20 -8 -27 -17 -13 -17 -13 -17
-14 0 0 10 -8 17 -19 17 -14 0 -17 -6 -13 -27 2 -16 11 -33 18 -39 12 -10 12
-13 -1 -24 -8 -7 -15 -21 -15 -32 0 -10 -7 -21 -15 -24 -8 -4 -12 -10 -9 -15
11 -18 -14 -8 -40 16 -15 14 -31 25 -37 25 -13 0 -11 -28 2 -32 16 -5 2 -44
-23 -68 -24 -22 -38 -18 -38 12 0 11 8 22 20 25 11 3 20 10 20 15 0 5 -9 6
-20 3 -12 -4 -20 -2 -20 5 0 6 -4 8 -10 5 -5 -3 -10 -15 -10 -26 0 -12 -7 -19
-19 -19 -11 0 -23 -5 -26 -11 -5 -6 -13 -3 -22 10 -16 24 -10 41 15 41 12 0
13 3 4 12 -15 15 -16 38 -1 38 7 0 17 -7 24 -17 8 -11 14 -12 19 -5 4 6 -2 20
-13 31 -24 24 -11 37 20 20 20 -10 21 -9 16 10 -6 23 -5 24 17 15 9 -3 16 -12
16 -19 0 -16 28 -40 37 -32 3 4 0 13 -7 22 -11 13 -10 14 5 9 10 -4 20 -1 25
7 12 18 22 6 26 -32 4 -34 14 -52 15 -28 0 8 1 35 2 62 2 26 1 47 0 47 -2 0
-15 -7 -28 -16 -24 -16 -25 -16 -25 10 0 20 4 24 17 19 11 -4 14 -3 9 5 -4 7
-2 12 5 12 7 0 6 9 -5 25 -17 25 -16 25 4 13 11 -7 20 -18 20 -25z m-214 -12
c2 -28 -20 -21 -24 8 -3 16 1 22 10 19 7 -3 14 -15 14 -27z m30 -8 c-11 -11
-19 6 -11 24 8 17 8 17 12 0 3 -10 2 -21 -1 -24z m-15 -56 c-8 -8 -11 -5 -11
9 0 27 14 41 18 19 2 -9 -1 -22 -7 -28z m-651 -14 c16 -9 31 -25 33 -35 8 -28
-4 -58 -22 -58 -11 0 -12 3 -4 8 15 9 -18 69 -42 78 -17 7 -20 24 -4 24 6 0
24 -8 39 -17z m-2779 -9 c9 -3 22 -17 28 -30 14 -32 14 -34 -3 -34 -8 0 -18
-9 -21 -20 -4 -13 -15 -20 -31 -20 -29 0 -31 14 -4 33 21 15 17 57 -6 57 -8 0
-11 6 -7 15 3 9 11 13 17 10 6 -3 18 -8 27 -11z m2909 -19 c10 -12 10 -15 -4
-15 -9 0 -16 7 -16 15 0 8 2 15 4 15 2 0 9 -7 16 -15z m491 -12 c-8 -15 -10
-15 -11 -2 0 17 10 32 18 25 2 -3 -1 -13 -7 -23z m-481 -31 c0 -5 -7 -9 -15
-9 -8 0 -15 4 -15 9 0 4 7 8 15 8 8 0 15 -4 15 -8z m-3176 -39 c4 -9 4 -18 1
-21 -3 -3 -5 0 -5 6 0 7 -11 12 -25 12 -26 0 -34 15 -12 23 17 6 35 -2 41 -20z
m3483 -9 c-9 -9 -28 6 -21 18 4 6 10 6 17 -1 6 -6 8 -13 4 -17z m-2722 -24
c-10 -11 -24 -20 -32 -20 -8 0 -2 10 14 24 33 28 45 25 18 -4z m-470 10 c3 -6
-1 -13 -9 -16 -9 -3 -16 -15 -16 -25 0 -12 5 -16 15 -13 8 4 15 2 15 -4 0 -9
-45 -22 -77 -22 -12 0 -12 3 1 16 9 8 16 20 16 26 0 13 30 48 41 48 4 0 11 -5
14 -10z m3221 -37 c-7 -7 -26 7 -26 19 0 6 6 6 15 -2 9 -7 13 -15 11 -17z
m-3326 13 c0 -11 -19 -15 -25 -6 -3 5 1 10 9 10 9 0 16 -2 16 -4z m525 -16 c3
-5 1 -10 -4 -10 -6 0 -11 5 -11 10 0 6 2 10 4 10 3 0 8 -4 11 -10z m-535 -15
c0 -12 -19 -12 -23 0 -4 9 -1 12 9 8 7 -3 14 -7 14 -8z m3530 -11 c0 -8 -4
-12 -10 -9 -5 3 -10 10 -10 16 0 5 5 9 10 9 6 0 10 -7 10 -16z m-3539 -57 c-6
-8 -23 -17 -36 -19 -20 -4 -24 -2 -21 16 2 13 10 20 19 18 8 -1 19 2 22 9 5 7
10 8 18 0 7 -7 7 -15 -2 -24z m-165 -11 c-29 -28 -56 -40 -56 -24 0 20 32 48
56 48 l23 0 -23 -24z m2381 18 c-3 -3 -12 -4 -19 -1 -8 3 -5 6 6 6 11 1 17 -2
13 -5z m-2172 -14 c3 -5 1 -10 -4 -10 -6 0 -11 5 -11 10 0 6 2 10 4 10 3 0 8
-4 11 -10z m475 -14 c0 -3 -4 -8 -10 -11 -5 -3 -10 -1 -10 4 0 6 5 11 10 11 6
0 10 -2 10 -4z m-779 -40 c-12 -12 -21 -30 -21 -39 0 -9 -5 -17 -11 -17 -13 0
-5 56 11 75 6 8 18 11 26 8 13 -5 12 -9 -5 -27z m184 24 c3 -5 1 -10 -4 -10
-6 0 -11 5 -11 10 0 6 2 10 4 10 3 0 8 -4 11 -10z m-685 -27 c0 -5 -7 -17 -15
-27 -15 -20 -20 -10 -9 18 6 16 24 22 24 9z m863 0 c-13 -2 -35 -2 -50 0 -16
2 -5 4 22 4 28 0 40 -2 28 -4z m-133 -13 c13 -8 13 -10 -2 -10 -9 0 -19 -6
-21 -12 -4 -10 -8 -9 -16 2 -6 8 -11 18 -11 23 0 10 32 9 50 -3z m-170 -4 c0
-3 -4 -8 -10 -11 -5 -3 -10 -1 -10 4 0 6 5 11 10 11 6 0 10 -2 10 -4z m233
-12 c3 -4 2 -15 -4 -25 -11 -21 -69 -27 -69 -8 0 25 56 50 73 33z m921 -32 c3
-5 -1 -9 -9 -9 -8 0 -15 4 -15 9 0 4 4 8 9 8 6 0 12 -4 15 -8z m-456 -24 c-2
-6 -10 -14 -16 -16 -7 -2 -10 2 -6 12 7 18 28 22 22 4z m-421 -4 c-3 -3 -12
-4 -19 -1 -8 3 -5 6 6 6 11 1 17 -2 13 -5z m-104 -46 c4 -15 -1 -28 -18 -44
-28 -26 -32 -52 -9 -61 13 -5 12 -9 -7 -29 -23 -24 -45 -23 -35 2 3 8 -3 20
-14 26 -11 7 -20 21 -20 30 0 23 9 23 26 1 20 -28 28 -8 8 22 -18 28 -14 37
28 60 32 18 35 18 41 -7z m697 -27 c15 -30 12 -38 -15 -45 -14 -4 -25 -11 -25
-16 0 -6 -16 -10 -35 -10 -27 0 -35 4 -35 18 0 53 87 94 110 53z m-1067 -76
c10 -14 13 -25 8 -25 -13 0 -51 32 -51 42 0 17 26 6 43 -17z m117 -5 c0 -5 -4
-10 -10 -10 -5 0 -10 5 -10 10 0 6 5 10 10 10 6 0 10 -4 10 -10z m-201 -35
c-7 -6 -13 -5 -19 5 -12 20 -2 32 15 17 8 -8 10 -16 4 -22z m1086 -16 c-4 -5
-15 -9 -26 -9 -26 0 -17 15 10 17 12 1 19 -2 16 -8z m-1023 -99 c-5 -33 -16
-39 -26 -14 -10 25 -7 32 12 37 9 3 17 5 18 6 0 0 -1 -12 -4 -29z m198 -10
c-7 -16 -16 -30 -21 -30 -14 0 -11 16 6 30 8 7 15 19 15 28 0 8 3 12 6 9 4 -4
1 -20 -6 -37z m-785 -10 c-6 -17 -9 -19 -22 -9 -13 11 -13 14 3 26 22 16 28
11 19 -17z m425 9 c0 -5 -7 -9 -15 -9 -15 0 -20 12 -9 23 8 8 24 -1 24 -14z
m60 7 c0 -3 -4 -8 -10 -11 -5 -3 -10 -1 -10 4 0 6 5 11 10 11 6 0 10 -2 10 -4z
m-502 -61 c7 -14 12 -32 12 -40 0 -24 -27 -17 -33 8 -2 12 -8 30 -12 40 -12
28 20 21 33 -8z m602 6 c0 -11 -39 -25 -47 -18 -3 3 -2 10 2 16 8 13 45 15 45
2z m1479 -43 c6 -27 11 -54 11 -59 0 -6 11 -25 25 -43 28 -37 32 -87 10 -126
-8 -14 -14 -37 -15 -52 -1 -64 -14 -61 -27 7 -9 50 -18 74 -33 84 -11 7 -20
24 -20 36 0 12 -7 39 -15 58 -8 20 -15 44 -15 54 0 15 3 15 18 -5 10 -13 21
-20 24 -17 8 9 -2 77 -13 90 -15 15 -10 23 15 23 22 0 26 -7 35 -50z m-1649
28 c0 -17 -14 -29 -23 -20 -8 8 3 34 14 34 5 0 9 -6 9 -14z m125 -61 c0 -48 8
-55 35 -30 16 14 18 14 24 0 4 -12 0 -19 -13 -22 -11 -3 -22 -11 -25 -19 -7
-19 -26 -18 -26 1 0 8 -5 15 -11 15 -7 0 -8 -7 -4 -17 25 -60 23 -115 -3 -111
-21 2 -32 -4 -32 -17 0 -11 8 -15 23 -13 12 2 23 -1 24 -6 0 -5 7 -13 15 -17
7 -4 13 -22 13 -39 0 -25 -5 -35 -24 -41 -18 -7 -22 -6 -18 5 5 12 1 13 -19 6
-36 -14 -51 -13 -36 2 16 16 15 28 0 28 -7 0 -25 -14 -40 -32 -31 -38 -38 -36
-31 9 3 20 12 35 24 38 25 8 24 21 -1 28 -16 4 -20 14 -20 47 0 35 2 40 14 31
11 -9 21 -5 47 19 18 16 30 31 26 31 -4 1 -13 2 -19 3 -7 0 -13 10 -13 21 0
11 5 19 12 18 10 -2 35 45 38 72 1 17 16 35 28 35 8 0 12 -17 12 -45z m-355
-20 c-7 -9 -15 -13 -18 -10 -3 2 1 11 8 20 7 9 15 13 18 10 3 -2 -1 -11 -8
-20z m215 5 c3 -5 -1 -10 -9 -10 -9 0 -16 5 -16 10 0 6 4 10 9 10 6 0 13 -4
16 -10z m1519 -35 c-5 -12 -10 -13 -20 -4 -19 15 -18 19 6 19 13 0 18 -5 14
-15z m-1742 -27 c-13 -13 -32 -2 -32 18 0 12 4 13 21 3 14 -7 18 -14 11 -21z
m125 -3 c-13 -13 -16 -13 -21 0 -3 8 3 19 12 24 22 13 28 -4 9 -24z m53 -15
c0 -19 -11 -26 -23 -14 -8 8 3 34 14 34 5 0 9 -9 9 -20z m60 -6 c0 -8 -7 -14
-15 -14 -17 0 -18 2 -9 24 7 18 24 12 24 -10z m-250 1 c0 -3 -9 -14 -20 -25
l-20 -20 0 25 c0 18 5 25 20 25 11 0 20 -2 20 -5z m420 -21 c0 -8 -4 -12 -10
-9 -5 3 -10 10 -10 16 0 5 5 9 10 9 6 0 10 -7 10 -16z m-290 -2 c0 -4 -9 -13
-20 -19 -20 -13 -37 -2 -25 17 7 12 45 14 45 2z m36 -69 c21 4 25 1 22 -17 -3
-18 -9 -20 -38 -18 -48 5 -56 16 -34 45 18 24 19 24 22 5 3 -15 9 -19 28 -15z
m-90 -5 c10 -16 -33 -48 -65 -48 l-26 1 35 29 c39 33 46 35 56 18z m348 -13
c-4 -8 -13 -15 -21 -15 -13 0 -13 3 -3 15 7 8 16 15 21 15 5 0 6 -7 3 -15z
m-291 -74 c5 -1 5 -5 2 -11 -9 -15 -38 -12 -61 5 -18 14 -17 14 16 10 19 -2
39 -4 43 -4z m337 0 c0 -6 -11 -23 -25 -38 l-24 -28 -1 27 c0 15 8 31 18 37
22 13 32 14 32 2z m-414 -36 c4 -21 12 -35 21 -35 8 0 13 -6 11 -13 -6 -15
-48 -22 -48 -8 0 6 -7 11 -15 11 -20 0 -30 46 -15 65 21 25 39 17 46 -20z
m464 5 c0 -5 -5 -10 -11 -10 -5 0 -7 5 -4 10 3 6 8 10 11 10 2 0 4 -4 4 -10z
m160 -24 c0 -11 -19 -15 -25 -6 -3 5 1 10 9 10 9 0 16 -2 16 -4z m63 -3 c-7
-2 -19 -2 -25 0 -7 3 -2 5 12 5 14 0 19 -2 13 -5z m-398 -23 c3 -6 -1 -7 -9
-4 -18 7 -21 14 -7 14 6 0 13 -4 16 -10z m-85 -10 c0 -5 -4 -10 -10 -10 -5 0
-10 5 -10 10 0 6 5 10 10 10 6 0 10 -4 10 -10z"/>
<path d="M400 2659 c0 -5 8 -9 18 -9 10 0 23 -5 30 -12 8 -8 15 -8 27 2 8 7
13 15 11 18 -9 9 -86 10 -86 1z"/>
<path d="M557 2533 c-12 -11 -8 -23 7 -23 7 0 19 7 26 15 10 12 9 15 -7 15
-11 0 -23 -3 -26 -7z"/>
<path d="M4243 1365 c-7 -8 -13 -20 -13 -26 0 -7 6 -5 13 6 10 12 16 14 21 7
10 -16 26 -15 26 2 0 8 -7 17 -16 20 -19 7 -16 8 -31 -9z"/>
<path d="M4493 1305 c-3 -9 -3 -18 0 -21 9 -9 27 6 27 22 0 19 -19 18 -27 -1z"/>
<path d="M4330 1255 c0 -8 2 -15 4 -15 2 0 11 -3 20 -6 12 -4 16 0 16 15 0 14
-6 21 -20 21 -11 0 -20 -7 -20 -15z"/>
<path d="M4265 1200 c3 -5 8 -10 11 -10 2 0 4 5 4 10 0 6 -5 10 -11 10 -5 0
-7 -4 -4 -10z"/>
<path d="M4126 1316 c3 -8 12 -17 20 -20 8 -3 14 -13 14 -21 0 -9 5 -13 10
-10 17 10 -18 64 -42 65 -4 0 -5 -6 -2 -14z"/>
<path d="M4725 1180 c3 -5 8 -10 11 -10 2 0 4 5 4 10 0 6 -5 10 -11 10 -5 0
-7 -4 -4 -10z"/>
<path d="M565 229 c-10 -15 3 -25 16 -12 7 7 7 13 1 17 -6 3 -14 1 -17 -5z"/>
<path d="M4225 4976 c-11 -8 -14 -15 -8 -19 6 -4 16 0 23 8 17 21 8 28 -15 11z"/>
<path d="M3325 4930 c-3 -5 1 -10 9 -10 9 0 16 5 16 10 0 6 -4 10 -9 10 -6 0
-13 -4 -16 -10z"/>
<path d="M4335 4730 c-3 -5 -2 -10 4 -10 5 0 13 5 16 10 3 6 2 10 -4 10 -5 0
-13 -4 -16 -10z"/>
<path d="M3333 4659 c4 -15 0 -23 -14 -26 -10 -3 -19 -9 -19 -15 0 -5 8 -4 19
2 11 5 26 7 35 4 8 -3 25 1 38 10 l22 16 -32 0 c-22 0 -32 5 -32 15 0 8 -5 15
-11 15 -7 0 -9 -9 -6 -21z"/>
<path d="M4300 4605 c0 -9 5 -15 11 -13 6 2 11 8 11 13 0 5 -5 11 -11 13 -6 2
-11 -4 -11 -13z"/>
<path d="M710 4525 c0 -14 6 -25 13 -25 7 0 14 11 15 25 1 16 -3 25 -13 25 -9
0 -15 -10 -15 -25z"/>
<path d="M3360 4536 c0 -9 5 -16 10 -16 6 0 10 4 10 9 0 6 -4 13 -10 16 -5 3
-10 -1 -10 -9z"/>
<path d="M2778 4413 c7 -3 16 -2 19 1 4 3 -2 6 -13 5 -11 0 -14 -3 -6 -6z"/>
<path d="M4375 4290 c-3 -5 1 -10 9 -10 9 0 16 5 16 10 0 6 -4 10 -9 10 -6 0
-13 -4 -16 -10z"/>
<path d="M3200 4260 c0 -15 -7 -20 -27 -20 -34 0 -27 -6 18 -14 35 -6 36 -5
37 24 0 20 -4 30 -14 30 -8 0 -14 -9 -14 -20z"/>
<path d="M3321 4247 c10 -35 16 -43 26 -33 4 4 1 11 -7 16 -12 8 -12 10 2 15
29 11 27 30 -2 31 -26 1 -27 -1 -19 -29z"/>
<path d="M3090 4250 c12 -7 12 -12 2 -22 -17 -17 -15 -28 7 -28 27 0 36 31 15
47 -10 7 -23 13 -28 13 -6 0 -4 -5 4 -10z"/>
<path d="M4463 4253 c9 -2 23 -2 30 0 6 3 -1 5 -18 5 -16 0 -22 -2 -12 -5z"/>
<path d="M4400 4200 c0 -5 7 -10 15 -10 8 0 15 5 15 10 0 6 -7 10 -15 10 -8 0
-15 -4 -15 -10z"/>
<path d="M255 4100 c3 -5 8 -10 11 -10 2 0 4 5 4 10 0 6 -5 10 -11 10 -5 0 -7
-4 -4 -10z"/>
<path d="M2867 4084 c-4 -4 -7 -14 -7 -23 0 -11 3 -12 11 -4 6 6 10 16 7 23
-2 6 -7 8 -11 4z"/>
<path d="M160 4030 c0 -10 66 -33 81 -28 5 2 -10 11 -36 20 -25 9 -45 13 -45
8z"/>
<path d="M2870 4014 c0 -8 5 -12 10 -9 6 4 8 11 5 16 -9 14 -15 11 -15 -7z"/>
<path d="M305 4000 c3 -5 8 -10 11 -10 2 0 4 5 4 10 0 6 -5 10 -11 10 -5 0 -7
-4 -4 -10z"/>
<path d="M2581 3894 c-10 -12 -15 -13 -21 -4 -6 9 -10 8 -17 -5 -9 -15 -14
-15 -33 -5 -12 7 -20 8 -17 3 3 -4 -74 -8 -171 -8 -143 0 -188 -4 -236 -18
-32 -10 -56 -20 -54 -22 2 -3 36 2 74 10 38 8 112 14 164 14 l95 -1 -100 -18
c-455 -81 -834 -382 -1020 -812 -16 -37 -32 -65 -37 -62 -4 3 -5 -2 -2 -10 3
-9 1 -16 -5 -16 -6 0 -11 9 -11 19 0 11 -5 23 -11 27 -7 4 -9 0 -5 -12 3 -11
8 -40 11 -66 4 -42 2 -49 -18 -59 -12 -7 -23 -12 -24 -11 -32 22 -70 -229 -59
-388 8 -121 27 -250 37 -250 4 0 5 -8 3 -18 -3 -9 2 -26 10 -37 9 -11 16 -15
16 -8 0 6 -5 15 -10 18 -6 3 -10 11 -10 18 0 8 3 8 12 -1 7 -7 12 -36 13 -65
0 -50 1 -52 26 -49 23 2 29 -5 54 -65 15 -38 34 -81 41 -97 18 -38 18 -39 -6
-33 -31 8 -33 -10 -6 -56 14 -23 34 -59 46 -79 12 -23 27 -38 38 -37 15 1 15
2 1 6 -10 2 -19 13 -22 24 -4 14 0 19 15 19 14 0 18 -5 15 -15 -4 -8 -2 -17 3
-20 7 -4 7 -13 0 -24 -19 -37 211 -275 342 -353 35 -21 69 -42 76 -48 7 -6 17
-8 24 -4 7 4 8 3 4 -4 -11 -17 166 -97 300 -136 244 -70 510 -75 738 -14 66
18 76 23 57 30 -12 4 -21 13 -19 20 6 18 220 100 232 88 15 -15 69 -13 60 2
-5 7 -2 9 8 6 52 -20 457 335 464 407 1 11 6 19 12 18 25 -6 143 214 191 354
53 156 65 237 65 438 0 216 -13 303 -71 468 -81 235 -219 443 -394 597 -75 66
-102 80 -125 63 -5 -5 -2 -1 6 7 15 13 11 18 -33 48 -34 23 -52 30 -61 23 -7
-6 -17 -6 -26 -1 -8 5 -22 7 -30 5 -8 -2 -22 0 -30 5 -12 7 -12 12 -2 22 20
20 15 26 -40 54 -93 47 -236 93 -352 114 -136 24 -157 24 -175 4z m34 -24 c3
-5 -1 -10 -9 -10 -9 0 -16 5 -16 10 0 6 4 10 9 10 6 0 13 -4 16 -10z m-105
-61 c0 -7 -11 -9 -30 -5 -33 6 -52 -16 -32 -36 6 -6 8 -17 5 -24 -3 -8 0 -14
7 -14 6 0 9 -4 5 -9 -3 -6 3 -8 15 -6 27 5 35 -12 10 -25 -11 -6 -20 -20 -20
-30 0 -27 -18 -25 -23 3 -3 21 -4 21 -12 2 -4 -11 -15 -28 -23 -37 -12 -14
-12 -21 -3 -32 9 -10 9 -16 1 -21 -7 -5 -8 -11 -1 -19 5 -6 10 -31 9 -55 0
-26 5 -47 13 -52 11 -8 10 -13 -8 -28 -19 -16 -20 -20 -8 -25 13 -5 13 -9 3
-28 -7 -12 -19 -28 -25 -36 -8 -8 -10 -20 -5 -30 5 -9 8 -30 6 -47 -1 -16 -3
-38 -3 -48 -1 -10 -12 -22 -25 -27 -35 -13 -39 -26 -12 -38 13 -6 26 -20 29
-31 6 -23 -17 -49 -28 -31 -10 16 -35 12 -29 -5 3 -8 -7 -28 -25 -47 -17 -18
-27 -37 -22 -43 11 -14 -11 -53 -27 -47 -6 2 -12 -3 -12 -12 0 -9 -5 -16 -11
-16 -5 0 -7 -4 -4 -10 4 -6 -7 -10 -25 -10 -42 0 -37 31 7 45 42 14 52 25 22
25 -18 0 -30 10 -43 35 -17 31 -18 38 -5 63 7 15 15 30 17 35 2 4 -8 7 -22 7
-14 0 -26 5 -26 12 0 9 -3 9 -11 1 -6 -6 -17 -9 -24 -7 -7 3 -15 -6 -19 -20
-3 -14 -11 -26 -16 -26 -6 0 -10 -8 -10 -18 0 -26 -29 -62 -50 -62 -10 0 -25
-9 -33 -20 -8 -11 -16 -17 -19 -14 -8 7 -48 -18 -48 -31 0 -6 -19 -16 -41 -23
-35 -11 -45 -11 -65 3 -20 13 -28 13 -47 4 -13 -8 -17 -14 -9 -17 20 -6 14
-37 -13 -62 -14 -13 -25 -29 -25 -36 0 -7 -6 -15 -12 -17 -7 -3 -4 -6 8 -6 19
-1 51 -47 40 -58 -3 -3 6 -23 20 -44 13 -21 24 -43 24 -48 0 -5 8 -12 17 -15
18 -7 43 16 43 40 0 6 15 15 34 18 28 5 33 10 29 26 -7 26 14 26 22 0 3 -11
13 -20 21 -20 21 0 77 -30 91 -49 37 -50 18 -142 -36 -174 -31 -18 -131 -22
-131 -5 0 4 -7 8 -15 8 -11 0 -14 -7 -9 -24 4 -18 1 -25 -16 -29 -27 -7 -62
13 -55 31 3 8 -2 13 -13 11 -39 -4 -42 0 -42 57 0 70 -11 91 -47 90 -28 -1
-28 -2 -31 -73 l-3 -73 -30 0 c-17 0 -28 -4 -24 -10 3 -6 -1 -7 -9 -4 -10 4
-16 1 -16 -10 0 -8 -9 -31 -19 -49 -10 -19 -17 -45 -15 -58 7 -36 -8 -51 -37
-41 -17 7 -33 5 -54 -6 -19 -10 -30 -11 -33 -4 -2 6 -10 8 -18 5 -9 -3 -14 1
-14 12 0 9 6 15 13 12 6 -2 17 3 24 12 8 11 12 12 13 4 0 -16 32 -17 48 -1 16
16 15 28 -2 28 -24 0 -58 51 -51 77 5 20 2 23 -27 23 -25 0 -29 -3 -18 -10 12
-8 9 -10 -12 -10 -16 0 -28 5 -28 11 0 5 5 7 10 4 25 -16 6 13 -26 39 -30 24
-35 33 -30 56 6 34 -23 53 -31 20 -3 -11 -12 -20 -19 -20 -24 0 -15 -20 16
-38 26 -14 30 -22 28 -49 -1 -20 4 -41 14 -53 11 -12 13 -22 7 -26 -5 -3 -9
-15 -7 -27 2 -18 -2 -22 -22 -22 -18 0 -26 6 -28 23 -2 12 1 22 7 22 6 0 11 5
11 10 0 7 -15 9 -37 6 -21 -3 -30 -3 -20 0 21 7 23 24 3 24 -26 0 -30 23 -8
41 26 20 28 29 7 29 -8 0 -19 9 -25 19 -8 16 -6 21 10 26 26 8 25 20 -1 38
-20 14 -20 16 -4 41 10 14 21 26 25 26 21 0 38 -13 33 -26 -7 -18 21 -19 35
-1 8 10 -3 19 -49 41 -61 29 -71 42 -42 53 14 6 14 7 2 12 -10 4 -13 14 -10
28 6 22 7 22 35 8 15 -8 36 -15 46 -15 10 0 20 -6 22 -12 3 -8 9 -4 17 10 7
13 8 22 2 22 -6 0 -8 6 -5 14 3 8 1 17 -5 20 -5 4 -12 -3 -16 -14 -7 -23 -41
-26 -68 -6 -14 11 -17 23 -13 52 8 61 22 99 35 96 7 -1 9 6 6 21 -12 45 79
239 174 372 80 113 248 268 386 356 130 84 322 150 525 182 59 10 170 7 170
-4z m25 -59 c8 -13 -20 -24 -41 -16 -20 8 -9 26 16 26 10 0 22 -5 25 -10z
m785 -220 c0 -5 -5 -10 -11 -10 -5 0 -7 5 -4 10 3 6 8 10 11 10 2 0 4 -4 4
-10z m20 -82 c0 -23 -3 -23 -25 1 -16 19 -16 20 4 18 13 -1 21 -8 21 -19z
m-34 -44 c1 -31 -24 -44 -41 -20 -8 11 -15 13 -20 7 -3 -6 -15 -11 -26 -11
-29 0 -26 48 4 54 71 16 80 12 83 -30z m238 30 c23 -9 20 -24 -4 -24 -11 0
-20 7 -20 15 0 17 2 18 24 9z m-61 -59 c4 -8 2 -17 -2 -20 -5 -2 -11 4 -14 15
-6 23 8 27 16 5z m-963 -105 c0 -5 -9 -19 -20 -30 -24 -24 -40 -26 -40 -5 0 8
11 17 25 21 14 3 25 10 25 15 0 5 2 9 5 9 3 0 5 -4 5 -10z m-70 -70 c0 -5 -7
-10 -16 -10 -8 0 -12 5 -9 10 3 6 10 10 16 10 5 0 9 -4 9 -10z m728 -22 c4
-21 -37 -35 -49 -17 -4 8 -1 18 9 26 21 15 36 12 40 -9z m-658 -3 c0 -8 -6
-15 -14 -15 -8 0 -17 -15 -20 -35 -6 -29 -11 -35 -31 -35 -17 0 -25 6 -25 18
0 27 23 71 40 76 32 8 50 5 50 -9z m-452 -263 c3 -16 -2 -22 -17 -22 -26 0
-36 17 -20 36 16 19 33 13 37 -14z m-130 -51 c11 -6 10 -11 -3 -24 -9 -9 -15
-22 -14 -29 3 -18 -19 -68 -30 -68 -16 0 -18 48 -2 64 14 15 14 16 -2 17 -9 1
-21 3 -27 4 -5 1 -13 3 -17 4 -3 0 2 10 12 21 19 21 60 26 83 11z m87 -110 c3
-6 -4 -15 -15 -21 -17 -9 -20 -8 -20 10 0 20 24 28 35 11z m1433 -2 c34 -12
48 -35 31 -55 -8 -10 -15 -10 -29 -2 -23 15 -50 3 -50 -22 0 -16 6 -20 34 -20
32 0 46 -13 46 -41 0 -5 -18 -9 -40 -9 l-40 0 0 -85 0 -85 -35 0 -35 0 0 85
c0 78 -2 85 -20 85 -15 0 -20 7 -20 25 0 18 5 25 20 25 14 0 20 7 20 24 0 39
11 57 44 72 38 16 36 16 74 3z m-737 -26 c22 -13 59 -69 59 -88 0 -2 -16 -7
-36 -11 -28 -5 -39 -3 -46 9 -29 52 -75 61 -113 22 -30 -29 -34 -97 -9 -133
37 -53 121 -48 144 8 12 30 31 37 64 24 20 -8 20 -18 1 -58 -9 -19 -33 -43
-57 -56 -33 -19 -50 -22 -98 -17 -96 8 -139 51 -147 146 -4 46 0 64 19 101 20
37 33 48 74 62 54 19 102 16 145 -9z m-1561 1 c0 -8 -4 -12 -10 -9 -5 3 -10
10 -10 16 0 5 5 9 10 9 6 0 10 -7 10 -16z m1065 6 c3 -5 -1 -10 -9 -10 -9 0
-16 -4 -16 -10 0 -5 -8 -10 -17 -10 -15 0 -14 2 3 19 22 23 30 25 39 11z
m1385 -44 c0 -34 1 -35 43 -38 35 -2 43 -7 45 -25 3 -21 -1 -23 -43 -23 l-46
0 3 -57 c3 -52 5 -58 26 -61 13 -2 29 2 37 8 11 9 16 6 25 -11 10 -18 9 -24
-6 -33 -47 -27 -77 -33 -107 -18 -35 17 -47 47 -47 118 0 47 -2 54 -20 54 -15
0 -20 7 -20 25 0 18 5 25 20 25 15 0 20 7 20 29 0 31 10 39 48 40 19 1 22 -4
22 -33z m-1620 4 c0 -5 -9 -10 -20 -10 -11 0 -20 5 -20 10 0 6 9 10 20 10 11
0 20 -4 20 -10z m999 -47 c11 -10 22 -29 23 -42 2 -19 -3 -26 -24 -31 -21 -6
-27 -4 -31 11 -3 11 -14 19 -26 19 -28 0 -41 -35 -41 -111 l0 -59 -32 0 -33 0
0 110 0 110 27 0 c14 0 28 -5 30 -11 2 -6 14 -5 33 5 38 20 48 20 74 -1z m210
6 c40 -14 61 -54 61 -119 0 -36 4 -50 14 -50 15 0 29 -27 21 -40 -12 -19 -66
-22 -85 -5 -18 16 -22 17 -54 1 -45 -21 -95 -10 -115 26 -13 23 -13 29 3 52
20 31 53 46 101 46 41 0 55 18 30 37 -25 17 -31 17 -55 -7 -21 -21 -65 -27
-75 -10 -10 17 15 51 48 65 39 17 65 18 106 4z m-1038 -16 c0 -10 8 -43 18
-73 l17 -55 24 73 c23 70 25 72 56 72 32 0 33 -2 57 -77 17 -55 26 -72 30 -58
3 11 13 46 22 78 16 55 18 57 50 57 l33 0 -25 -82 c-14 -46 -29 -94 -33 -108
-5 -21 -13 -26 -47 -28 l-41 -3 -22 73 -23 73 -15 -48 c-13 -38 -13 -52 -4
-68 7 -10 12 -21 12 -24 0 -3 -26 -5 -59 -5 l-59 0 -25 83 c-45 144 -45 137
-3 137 27 0 36 -4 37 -17z m-966 -23 c3 -5 1 -10 -4 -10 -6 0 -11 5 -11 10 0
6 2 10 4 10 3 0 8 -4 11 -10z m2672 -212 c-3 -8 -6 -5 -6 6 -1 11 2 17 5 13 3
-3 4 -12 1 -19z m-2017 -38 c4 0 6 -9 3 -20 -6 -24 -36 -26 -59 -3 -15 16 -15
17 2 24 11 4 25 6 32 3 8 -2 17 -4 22 -4z m-632 -52 c-5 -15 -23 -11 -26 6 -2
11 2 14 13 10 9 -4 14 -11 13 -16z m623 -9 c15 -8 24 -7 35 2 16 13 16 14 32
-25 15 -33 9 -44 -12 -27 -16 13 -36 7 -36 -10 0 -6 8 -8 19 -4 22 7 38 -23
17 -31 -19 -7 -68 1 -95 16 -16 8 -20 17 -16 31 4 12 1 21 -9 25 -25 9 -19 22
12 27 15 2 28 5 30 6 2 0 12 -4 23 -10z m-511 -60 c3 -4 23 -10 45 -12 40 -4
40 -4 40 -47 0 -35 -4 -44 -20 -46 -37 -6 -115 8 -115 21 0 7 -10 20 -22 29
l-23 16 23 16 c12 9 22 22 22 29 0 14 40 9 50 -6z m498 -65 c12 -4 22 -13 22
-21 0 -11 -7 -13 -32 -8 -39 9 -42 11 -33 24 7 13 12 13 43 5z m-136 -47 c18
-18 94 -47 123 -47 39 0 29 18 -12 23 l-38 4 43 1 c23 1 42 -2 42 -8 0 -5 6
-10 14 -10 24 0 28 -18 12 -42 -9 -12 -16 -18 -16 -13 0 6 -11 -17 -25 -49
-26 -64 -25 -76 6 -76 24 0 30 13 32 71 2 40 5 44 30 47 15 2 27 -1 27 -7 0
-6 -9 -11 -20 -11 -26 0 -28 -46 -2 -53 13 -4 13 -5 -4 -6 -13 -1 -24 -9 -27
-21 -5 -18 0 -20 38 -20 46 0 59 -8 46 -29 -6 -9 -46 -12 -157 -12 -82 1 -152
5 -156 9 -5 5 -10 23 -11 40 -2 28 -17 48 -17 22 0 -5 -8 -10 -17 -10 -10 0
-14 4 -8 8 16 12 16 32 0 32 -14 0 -19 -12 -16 -32 0 -5 -3 -8 -9 -8 -5 0 -10
5 -10 10 0 6 -7 10 -15 10 -27 0 -43 67 -16 71 39 5 120 4 134 -3 10 -5 17 -5
17 1 0 18 39 22 62 7 24 -15 38 -10 65 24 10 13 4 15 -42 15 -30 0 -59 -5 -66
-12 -18 -18 -39 9 -39 51 0 38 10 45 32 23z m-327 -21 c44 -2 88 -7 98 -11 9
-4 17 -3 17 2 0 5 27 10 60 11 47 2 62 -1 66 -13 9 -23 -15 -45 -50 -44 -17 0
-25 3 -18 6 18 7 15 43 -4 43 -10 0 -14 -5 -10 -16 3 -8 2 -13 -3 -10 -5 3
-14 -8 -21 -25 -21 -50 -44 -58 -139 -51 -72 6 -85 10 -91 28 -7 18 -5 20 21
16 16 -2 37 -1 46 3 17 6 17 7 -1 21 -24 17 -73 18 -79 2 -3 -7 -4 -3 -4 9 1
12 5 19 11 16 5 -4 7 1 3 10 -4 10 -2 14 6 12 7 -2 48 -6 92 -9z m607 -112 c4
-32 22 -32 26 1 5 37 24 30 20 -7 -2 -23 -9 -34 -22 -36 -24 -5 -36 8 -46 52
-7 30 -6 35 5 26 8 -6 15 -23 17 -36z m262 21 c18 -18 33 -19 39 -2 4 10 7 10
18 0 18 -17 29 -16 29 2 0 21 20 19 20 -2 1 -17 2 -17 13 -2 8 10 23 16 41 14
36 -4 43 -12 29 -34 -9 -14 -9 -21 0 -30 8 -8 8 -11 0 -11 -6 0 -13 7 -17 15
-8 22 -26 18 -26 -5 0 -11 5 -20 10 -20 6 0 10 -7 10 -15 0 -11 12 -15 50 -15
37 0 50 -4 50 -15 0 -11 -15 -14 -70 -12 -39 1 -72 -2 -74 -8 -2 -5 -10 -2
-17 7 -21 25 -109 28 -109 3 0 -8 -7 -15 -15 -15 -8 0 -15 -5 -15 -11 0 -8 -4
-9 -13 0 -15 12 -27 5 -27 -16 0 -7 7 -13 15 -13 17 0 20 -16 5 -25 -6 -3 -13
1 -16 9 -9 23 -34 20 -34 -4 0 -11 -7 -20 -15 -20 -10 0 -15 10 -15 30 0 23 4
30 20 30 31 0 24 20 -7 21 -61 2 -68 5 -71 23 -6 30 8 126 19 126 5 0 9 -7 9
-15 0 -8 5 -15 11 -15 6 0 9 7 5 15 -3 9 0 15 8 15 8 0 17 -7 20 -16 5 -13 9
-14 21 -4 12 10 15 9 15 -8 0 -13 -8 -22 -22 -25 -17 -3 -15 -5 8 -6 34 -1 64
22 44 34 -8 5 -8 11 1 21 15 18 34 18 53 -1z m268 -17 c5 18 13 30 18 27 10
-6 -13 -68 -28 -73 -5 -1 -15 11 -21 29 -16 47 -12 60 6 19 l16 -35 9 33z
m146 17 c3 -3 -6 -5 -19 -5 -23 -1 -23 -1 -6 -14 18 -14 18 -14 0 -19 -15 -3
-14 -6 7 -15 l25 -11 -27 0 c-26 -1 -28 2 -28 38 0 35 2 39 21 36 12 -3 24 -7
27 -10z m293 -15 c6 22 7 20 8 -12 1 -45 -12 -49 -34 -10 l-16 27 5 -26 c4
-18 1 -29 -9 -33 -10 -3 -15 1 -15 11 0 13 -3 14 -12 5 -21 -21 -38 -13 -38
17 0 33 15 49 24 26 7 -19 26 -20 26 -1 0 26 25 24 39 -3 l15 -26 7 25z m176
14 c2 -6 -6 -10 -18 -10 -25 1 -33 -12 -19 -34 8 -12 13 -13 30 -2 11 7 20 8
20 3 0 -16 -20 -23 -46 -17 -17 5 -24 13 -24 31 0 34 47 58 57 29z m102 3 c8
-10 7 -17 -1 -25 -8 -8 -8 -15 2 -27 9 -11 9 -15 1 -15 -6 0 -14 7 -17 15 -4
8 -10 15 -15 15 -5 0 -9 -7 -9 -15 0 -8 -4 -15 -10 -15 -5 0 -10 16 -10 35 0
19 5 35 10 35 6 0 10 -7 10 -15 0 -8 7 -15 15 -15 8 0 15 5 15 10 0 6 -4 10
-10 10 -5 0 -10 5 -10 10 0 14 16 12 29 -3z m181 2 c0 -4 -10 -10 -22 -13 -22
-7 -22 -7 -3 -16 16 -7 17 -9 3 -9 -9 -1 -19 -9 -21 -18 -3 -10 -5 1 -6 23 -1
39 1 42 24 40 14 0 25 -4 25 -7z m78 -4 c3 -3 0 -5 -6 -5 -7 0 -12 -15 -12
-32 -1 -28 -2 -30 -11 -15 -6 10 -8 25 -5 33 3 8 -1 14 -10 14 -8 0 -13 4 -9
9 5 10 43 7 53 -4z m-908 -31 c0 -21 -4 -33 -10 -29 -5 3 -10 19 -10 36 0 16
5 29 10 29 6 0 10 -16 10 -36z m181 9 l11 -28 10 28 c6 15 15 26 22 24 14 -5
21 -67 7 -67 -6 0 -11 12 -12 28 l-1 27 -10 -27 c-5 -16 -13 -28 -18 -28 -4 0
-11 12 -16 28 l-7 27 -7 -30 c-8 -30 -8 -29 -9 8 -1 43 15 49 30 10z m267 20
c-21 -5 -24 -23 -5 -24 10 0 10 -2 0 -6 -18 -7 -16 -21 5 -26 10 -3 6 -5 -10
-6 -25 -1 -28 2 -28 34 0 32 3 35 28 34 16 -1 20 -3 10 -6z m292 -23 c7 -17
10 -33 6 -37 -3 -3 -6 -1 -6 5 0 16 -37 15 -43 0 -2 -7 -6 -11 -9 -8 -7 7 20
70 31 70 5 0 14 -14 21 -30z m-1390 0 c0 -5 -5 -10 -11 -10 -5 0 -7 5 -4 10 3
6 8 10 11 10 2 0 4 -4 4 -10z m-578 -19 c3 -1 11 -14 17 -31 11 -33 35 -39 61
-15 10 9 34 19 54 22 43 7 47 -8 13 -51 -21 -26 -30 -29 -85 -30 -60 -2 -61
-1 -80 34 -11 19 -23 45 -27 58 -5 19 -3 22 17 18 13 -3 26 -5 30 -5z m2457
-27 c9 -8 -13 -24 -34 -24 -18 0 -22 4 -18 20 4 16 11 19 27 14 11 -4 23 -8
25 -10z m-1769 -44 c0 -5 -5 -10 -11 -10 -5 0 -7 5 -4 10 3 6 8 10 11 10 2 0
4 -4 4 -10z m386 -59 c-9 -14 -46 -14 -46 -1 0 6 7 10 15 10 8 0 15 5 15 12 0
9 3 9 11 1 6 -6 8 -16 5 -22z m1131 -3 c-3 -8 -6 -5 -6 6 -1 11 2 17 5 13 3
-3 4 -12 1 -19z m-99 -20 c-13 -18 -29 -39 -35 -46 -7 -7 -13 -18 -13 -24 0
-6 -6 -5 -15 2 -14 12 -15 10 -11 -12 3 -19 -3 -33 -26 -54 -24 -23 -28 -24
-17 -7 15 24 4 46 -11 23 -6 -8 -10 -10 -10 -4 0 20 22 34 34 21 6 -7 10 -10
9 -8 -2 2 2 10 8 18 9 10 8 13 -4 13 -9 0 -14 10 -14 26 0 25 28 45 78 56 7 2
20 9 27 16 23 21 23 13 0 -20z m-1928 -15 c0 -13 -3 -13 -15 -3 -8 7 -12 16
-9 21 8 13 24 1 24 -18z m1972 -5 c-6 -6 -15 -8 -19 -4 -4 4 -1 11 7 16 19 12
27 3 12 -12z m115 -23 c-27 -41 -32 -43 -34 -8 0 14 2 21 6 14 5 -7 12 -3 21
13 7 14 17 23 21 20 4 -2 -2 -20 -14 -39z m-2132 -4 c-4 -3 -14 -6 -23 -6 -18
0 -18 -6 -7 -40 5 -14 0 -11 -19 10 -14 17 -25 35 -25 40 -1 6 3 4 8 -4 8 -12
12 -12 25 2 9 9 23 14 32 10 8 -3 12 -8 9 -12z m2080 1 c8 -21 3 -22 -17 -2
-14 13 -15 17 -3 17 8 0 17 -7 20 -15z m-2011 2 c23 -9 20 -34 -4 -34 -13 0
-20 7 -20 20 0 22 1 23 24 14z m316 -4 c0 -6 -38 -10 -95 -10 -57 0 -95 4 -95
10 0 6 38 10 95 10 57 0 95 -4 95 -10z m1602 -2 c-16 -16 -15 -31 2 -25 8 3
17 -1 20 -9 3 -8 -1 -14 -8 -14 -9 0 -12 -7 -9 -21 4 -16 2 -20 -8 -17 -8 3
-13 12 -13 21 2 14 -2 14 -24 -3 -14 -11 -28 -18 -31 -15 -3 4 -1 9 4 13 6 4
21 24 35 44 14 21 29 38 35 38 5 0 4 -5 -3 -12z m-362 -8 c13 -1 13 -2 -1 -13
-17 -13 -19 -18 -19 -42 0 -17 -26 -20 -35 -5 -4 6 -1 18 7 27 10 13 10 17 1
20 -23 8 -14 26 10 19 12 -3 29 -6 37 -6z m425 -10 c-21 -8 -35 -4 -35 9 0 5
12 6 27 3 24 -5 25 -6 8 -12z m-658 -13 c-2 -19 3 -21 46 -21 26 0 47 -3 47
-8 0 -11 38 -10 45 2 3 6 11 10 17 10 6 0 1 -11 -12 -25 -13 -14 -20 -25 -15
-25 5 0 4 -5 -3 -12 -9 -9 -15 -8 -24 5 -14 17 -33 11 -33 -10 0 -7 -3 -13 -7
-13 -5 0 -15 0 -23 0 -9 0 -15 9 -15 25 0 14 -3 24 -7 24 -5 -1 -12 0 -18 1
-5 1 -26 3 -45 4 -43 1 -55 35 -18 51 42 18 68 15 65 -8z m-1276 -10 c-10 -9
-11 -8 -5 6 3 10 9 15 12 12 3 -3 0 -11 -7 -18z m1163 -12 c-4 -8 -10 -12 -15
-9 -11 6 -2 24 11 24 5 0 7 -7 4 -15z m466 8 c0 -5 -5 -15 -10 -23 -8 -12 -10
-11 -10 8 0 12 5 22 10 22 6 0 10 -3 10 -7z m313 -20 c-4 -11 -3 -14 5 -9 8 5
10 2 6 -8 -9 -23 -24 -9 -24 20 0 14 4 23 10 19 5 -3 6 -13 3 -22z m-423 1 c0
-8 -4 -12 -10 -9 -5 3 -10 10 -10 16 0 5 5 9 10 9 6 0 10 -7 10 -16z m-754
-23 c5 -5 18 -11 29 -14 15 -4 13 -5 -7 -6 -23 -1 -28 -6 -28 -26 0 -23 -4
-25 -44 -25 -87 0 -106 32 -28 48 31 6 38 10 22 12 -23 1 -23 2 -5 10 27 12
49 12 61 1z m754 -11 c0 -5 -5 -10 -11 -10 -5 0 -7 5 -4 10 3 6 8 10 11 10 2
0 4 -4 4 -10z m-446 -19 c8 -12 -21 -34 -34 -26 -8 5 -8 11 1 21 13 16 25 18
33 5z m-539 -21 c-2 -29 -12 -34 -24 -12 -11 20 -6 32 14 32 6 0 11 -9 10 -20z
m605 -5 c0 -14 -5 -25 -11 -25 -6 0 -8 9 -4 22 6 17 4 20 -9 15 -9 -4 -16 -2
-16 3 0 6 9 10 20 10 15 0 20 -7 20 -25z m266 -20 c-5 -14 -9 -15 -21 -5 -12
10 -13 16 -4 27 15 18 34 1 25 -22z m127 15 c-3 -11 -7 -20 -9 -20 -2 0 -4 9
-4 20 0 11 4 20 9 20 5 0 7 -9 4 -20z m-909 -16 c25 -10 19 -27 -8 -20 -28 7
-40 -2 -25 -21 9 -10 5 -13 -19 -13 -57 0 -49 31 13 52 11 3 21 6 22 7 1 1 8
-2 17 -5z m110 -10 c9 -3 16 -12 16 -20 0 -15 -29 -18 -68 -8 l-23 7 23 12
c28 16 32 17 52 9z m159 -26 c-6 -30 -5 -32 10 -19 15 12 17 10 17 -18 0 -36
-1 -37 -26 -13 -23 21 -30 82 -9 82 11 0 13 -8 8 -32z m667 6 c0 -2 -9 -4 -20
-4 -11 0 -20 4 -20 9 0 5 9 7 20 4 11 -3 20 -7 20 -9z m-215 -15 c-4 -5 -16
-9 -28 -9 -20 0 -20 0 -2 14 21 15 40 12 30 -5z m-615 -23 c0 -2 -7 -9 -15
-16 -12 -10 -15 -10 -15 4 0 9 7 16 15 16 8 0 15 -2 15 -4z m610 -26 c0 -5 -4
-10 -10 -10 -5 0 -10 5 -10 10 0 6 5 10 10 10 6 0 10 -4 10 -10z m108 -1 c12
0 10 -3 -6 -10 -25 -10 -42 -5 -42 13 0 5 7 7 16 4 9 -3 23 -6 32 -7z m105
-14 c4 -8 1 -17 -6 -21 -7 -4 -9 -4 -5 1 4 4 3 14 -3 22 -7 8 -8 13 -1 13 5 0
12 -7 15 -15z m155 1 c32 -1 42 -5 39 -16 -2 -8 -8 -14 -15 -13 -6 2 -35 -2
-64 -8 -29 -6 -68 -13 -86 -15 -29 -3 -31 -2 -18 12 9 8 19 15 23 16 4 0 14 9
21 20 10 14 20 17 35 11 12 -4 41 -7 65 -7z m-188 -30 c0 -3 -15 -14 -32 -26
l-33 -22 30 26 c31 27 35 29 35 22z m20 -30 c0 -2 -8 -10 -17 -17 -16 -13 -17
-12 -4 4 13 16 21 21 21 13z m-127 -49 c-2 -4 -26 -17 -51 -29 -26 -12 -51
-24 -56 -26 -5 -3 -6 0 -2 6 4 7 3 12 -1 12 -5 0 -9 11 -9 24 0 24 2 25 62 23
34 -1 60 -6 57 -10z m112 -21 c22 -3 42 -5 44 -6 3 0 -4 -6 -14 -14 -13 -9
-26 -11 -35 -6 -9 5 -35 4 -59 -1 -64 -14 -81 2 -29 29 23 11 45 17 48 13 3
-5 23 -11 45 -15z m-209 -65 c-8 -12 20 -22 41 -14 12 5 14 3 8 -8 -8 -12 -6
-12 9 0 11 10 20 11 27 4 7 -7 -8 -17 -49 -31 -33 -11 -63 -18 -66 -14 -13 12
-5 52 12 61 21 13 25 13 18 2z"/>
<path d="M1960 3030 c0 -11 39 -58 41 -49 0 2 2 12 4 22 2 9 -5 22 -15 27 -24
13 -30 13 -30 0z"/>
<path d="M1305 2800 c3 -5 8 -10 11 -10 2 0 4 5 4 10 0 6 -5 10 -11 10 -5 0
-7 -4 -4 -10z"/>
<path d="M1660 2692 c0 -5 14 -9 30 -9 17 0 30 4 30 9 0 4 -13 8 -30 8 -16 0
-30 -4 -30 -8z"/>
<path d="M1393 2656 c1 -11 9 -21 17 -23 10 -3 11 -2 4 4 -6 4 -14 15 -17 23
-5 11 -6 9 -4 -4z"/>
<path d="M1660 2650 c0 -19 3 -21 12 -12 9 9 9 15 0 24 -9 9 -12 7 -12 -12z"/>
<path d="M1916 2578 c-21 -30 -20 -61 3 -82 28 -25 63 -17 80 18 12 26 12 33
0 55 -20 35 -62 40 -83 9z"/>
<path d="M1815 2558 c-4 -10 -4 -26 0 -35 8 -17 8 -17 12 0 3 9 3 25 0 35 -4
16 -4 16 -12 0z"/>
<path d="M1350 2551 c0 -18 55 -71 73 -71 16 0 17 3 7 15 -7 8 -9 15 -4 15 5
1 -3 8 -18 16 -16 8 -28 19 -28 24 0 6 -7 10 -15 10 -8 0 -15 -4 -15 -9z"/>
<path d="M3113 2513 c-22 -8 -14 -32 11 -39 29 -7 42 -1 56 27 10 17 7 19 -22
18 -18 0 -39 -3 -45 -6z"/>
<path d="M1830 2256 c0 -9 5 -16 10 -16 6 0 10 4 10 9 0 6 -4 13 -10 16 -5 3
-10 -1 -10 -9z"/>
<path d="M1810 2031 c0 -5 5 -13 10 -16 6 -3 10 -2 10 4 0 5 -4 13 -10 16 -5
3 -10 2 -10 -4z"/>
<path d="M1630 2000 c0 -5 8 -10 18 -11 15 0 15 -1 -1 -8 -17 -6 -16 -8 7 -19
24 -11 25 -10 22 11 -3 12 -5 25 -5 30 -1 11 -41 8 -41 -3z"/>
<path d="M1540 1970 c0 -5 5 -10 10 -10 6 0 10 5 10 10 0 6 -4 10 -10 10 -5 0
-10 -4 -10 -10z"/>
<path d="M1740 1970 c0 -14 41 -23 53 -11 6 6 9 11 7 12 -44 6 -60 6 -60 -1z"/>
<path d="M1705 1890 c-3 -5 -1 -10 4 -10 6 0 11 5 11 10 0 6 -2 10 -4 10 -3 0
-8 -4 -11 -10z"/>
<path d="M1580 2085 c0 -8 5 -15 10 -15 6 0 10 7 10 15 0 8 -4 15 -10 15 -5 0
-10 -7 -10 -15z"/>
<path d="M2385 2000 c3 -5 10 -10 16 -10 5 0 9 5 9 10 0 6 -7 10 -16 10 -8 0
-12 -4 -9 -10z"/>
<path d="M2350 1970 c0 -5 5 -10 11 -10 5 0 7 5 4 10 -3 6 -8 10 -11 10 -2 0
-4 -4 -4 -10z"/>
<path d="M2080 1955 c7 -8 17 -15 22 -15 5 0 3 7 -6 15 -8 8 -18 15 -22 15 -3
0 -1 -7 6 -15z"/>
<path d="M3280 1996 c0 -9 5 -16 10 -16 6 0 10 4 10 9 0 6 -4 13 -10 16 -5 3
-10 -1 -10 -9z"/>
<path d="M3366 1785 c-2 -6 4 -12 14 -12 10 -1 20 4 23 11 3 6 -3 12 -14 12
-10 0 -20 -5 -23 -11z"/>
<path d="M3180 3880 c0 -5 4 -10 9 -10 6 0 13 5 16 10 3 6 -1 10 -9 10 -9 0
-16 -4 -16 -10z"/>
<path d="M3181 3850 c0 -8 6 -24 14 -34 11 -15 15 -16 15 -5 0 8 -7 24 -15 35
-11 14 -14 15 -14 4z"/>
<path d="M3150 3796 c0 -2 7 -6 15 -10 8 -3 15 -1 15 4 0 6 -7 10 -15 10 -8 0
-15 -2 -15 -4z"/>
<path d="M4718 3793 c7 -3 16 -2 19 1 4 3 -2 6 -13 5 -11 0 -14 -3 -6 -6z"/>
<path d="M4935 3380 c3 -5 8 -10 11 -10 2 0 4 5 4 10 0 6 -5 10 -11 10 -5 0
-7 -4 -4 -10z"/>
<path d="M220 3361 c0 -7 -10 -9 -25 -5 -15 4 -25 2 -25 -5 0 -6 6 -11 14 -11
8 0 18 -9 21 -21 5 -15 14 -19 33 -17 22 2 26 8 26 33 0 23 -5 31 -22 33 -12
2 -22 -2 -22 -7z"/>
<path d="M298 3363 c7 -3 16 -2 19 1 4 3 -2 6 -13 5 -11 0 -14 -3 -6 -6z"/>
<path d="M4905 3330 c3 -5 8 -10 11 -10 2 0 4 5 4 10 0 6 -5 10 -11 10 -5 0
-7 -4 -4 -10z"/>
<path d="M4967 3259 c7 -7 15 -10 18 -7 3 3 -2 9 -12 12 -14 6 -15 5 -6 -5z"/>
<path d="M476 3216 c4 -12 1 -16 -14 -16 -12 0 -23 -3 -26 -8 -8 -13 21 -43
36 -37 8 3 21 -1 28 -10 8 -10 9 -15 1 -15 -6 0 -11 -4 -11 -10 0 -14 33 -12
55 3 17 13 17 15 -6 31 l-24 17 23 19 c30 25 28 33 -8 25 -19 -4 -37 -2 -46 6
-12 10 -13 9 -8 -5z"/>
<path d="M24 3189 c-3 -5 6 -9 20 -9 31 0 34 6 6 13 -11 3 -23 1 -26 -4z"/>
<path d="M115 3190 c3 -5 15 -10 26 -10 10 0 19 5 19 10 0 6 -12 10 -26 10
-14 0 -23 -4 -19 -10z"/>
<path d="M4953 3167 c9 -8 17 -19 17 -24 0 -6 7 -16 15 -23 13 -11 15 -8 15
19 0 20 -5 31 -14 31 -8 0 -23 3 -33 6 -17 5 -17 5 0 -9z"/>
<path d="M0 3115 c0 -8 4 -15 9 -15 5 0 14 7 21 15 10 13 9 15 -9 15 -12 0
-21 -6 -21 -15z"/>
<path d="M493 3085 c-14 -10 -19 -22 -16 -36 5 -19 4 -20 -16 -10 -17 10 -21
9 -21 -4 0 -9 9 -26 21 -38 17 -19 18 -23 5 -25 -31 -7 -15 -21 34 -31 68 -15
70 -14 70 9 0 23 0 23 35 10 24 -9 26 -8 20 10 -4 12 -2 27 4 34 9 11 6 13
-16 11 -16 -1 -36 -5 -46 -10 -25 -10 -34 2 -19 26 10 16 10 20 -3 25 -8 4
-15 15 -15 25 0 23 -9 24 -37 4z"/>
<path d="M390 3046 c0 -2 7 -9 15 -16 13 -11 14 -10 9 4 -5 14 -24 23 -24 12z"/>
<path d="M777 3017 c-3 -9 -2 -19 4 -23 15 -9 18 -2 9 20 -6 17 -7 18 -13 3z"/>
<path d="M640 2960 c0 -13 11 -13 30 0 12 8 11 10 -7 10 -13 0 -23 -4 -23 -10z"/>
<path d="M464 2889 c-15 -25 25 -39 45 -15 9 11 6 15 -14 18 -14 3 -28 1 -31
-3z"/>
<path d="M4966 2693 c-5 -11 -1 -22 9 -29 11 -8 12 -14 5 -19 -11 -7 -4 -25
11 -25 5 0 9 20 9 45 0 47 -21 63 -34 28z"/>
<path d="M230 2159 c0 -5 5 -7 10 -4 6 3 10 8 10 11 0 2 -4 4 -10 4 -5 0 -10
-5 -10 -11z"/>
<path d="M756 2105 c-9 -25 -9 -25 23 -25 17 0 33 -4 36 -10 3 -5 17 -10 31
-10 19 0 24 5 24 25 0 22 -5 25 -32 25 -18 0 -43 3 -54 6 -14 4 -23 0 -28 -11z"/>
<path d="M397 2094 c5 -12 53 -6 53 7 0 4 -13 7 -29 6 -16 -1 -27 -7 -24 -13z"/>
<path d="M0 1988 l0 -84 141 1 c135 0 182 -7 122 -21 -48 -10 -53 -13 -47 -27
4 -10 -10 -14 -61 -15 -39 -1 -65 2 -65 8 0 7 -6 7 -19 0 -11 -5 -31 -10 -45
-10 -23 0 -26 -4 -26 -34 0 -18 7 -39 15 -46 12 -10 15 -10 15 4 0 21 9 20 26
-1 13 -17 13 -17 14 1 0 18 1 18 18 3 10 -10 25 -17 33 -17 9 0 21 -15 28 -34
8 -20 20 -33 30 -32 13 1 16 -9 15 -52 -2 -57 -20 -93 -36 -70 -8 10 -11 10
-15 1 -2 -7 -16 -13 -29 -13 -15 0 -24 -6 -24 -15 0 -19 -7 -19 -26 -1 -8 8
-11 23 -8 33 5 16 4 16 -11 -2 -16 -20 -16 -20 -31 0 -15 20 -15 20 -11 0 13
-63 20 -85 28 -85 5 0 9 -8 9 -17 1 -10 7 -4 15 15 14 32 43 37 31 5 -3 -8 -1
-11 4 -8 6 3 10 1 10 -4 0 -6 5 -11 10 -11 6 0 10 9 10 20 0 23 15 27 27 6 10
-17 54 -41 70 -38 7 2 13 -12 15 -30 4 -44 33 -46 33 -2 1 18 6 38 11 45 6 8
14 26 18 42 6 24 26 39 26 19 0 -5 9 -19 20 -32 11 -13 20 -29 20 -37 0 -7 4
-13 9 -13 5 0 12 -8 14 -17 3 -10 5 -4 6 14 0 17 -3 35 -9 38 -12 8 -13 65 -1
84 11 17 31 6 31 -18 0 -9 5 -22 12 -29 9 -9 8 -16 -3 -29 -10 -12 -13 -30 -9
-58 l6 -40 7 31 c6 23 13 30 30 30 18 -1 23 5 25 34 3 28 1 33 -9 23 -16 -16
-29 -17 -29 -3 0 9 38 99 47 109 2 3 10 -4 18 -15 12 -14 15 -35 12 -81 -3
-35 -1 -63 3 -63 4 0 15 9 26 21 l19 21 6 -28 7 -29 1 30 c2 40 23 69 39 53
17 -17 23 -6 25 50 l2 51 -65 -3 -66 -3 4 66 c4 86 7 94 32 86 12 -4 20 -2 20
5 0 6 6 10 12 7 7 -2 21 2 30 11 14 12 20 12 33 2 14 -11 19 -7 16 13 -1 4 7
10 16 13 10 3 28 11 40 16 12 6 36 8 53 5 24 -5 32 -3 36 11 3 9 10 25 15 35
8 15 4 17 -31 17 -26 0 -43 5 -46 14 -10 25 -62 0 -66 -32 -2 -18 -9 -28 -23
-29 -11 -1 -27 -3 -35 -4 -8 -1 -42 -1 -75 0 -44 1 -56 4 -43 11 25 15 33 68
13 90 -10 11 -16 32 -15 52 4 71 7 68 -74 68 -41 0 -77 -4 -81 -9 -6 -10 -295
-6 -327 5 -16 5 -18 -2 -18 -78z m400 -62 c0 -21 21 -31 31 -15 7 11 9 10 9
-3 0 -15 -9 -18 -50 -18 -30 0 -50 4 -50 11 0 6 6 9 14 6 8 -3 16 2 19 14 6
22 27 26 27 5z m-80 -151 c0 -8 -4 -15 -10 -15 -5 0 -10 7 -10 15 0 8 5 15 10
15 6 0 10 -7 10 -15z m67 -91 c-3 -3 -12 -4 -19 -1 -8 3 -5 6 6 6 11 1 17 -2
13 -5z m-5 -34 c23 0 24 -38 1 -55 -21 -15 -53 1 -53 27 0 31 12 50 23 39 6
-6 19 -11 29 -11z"/>
<path d="M4280 2056 c0 -2 7 -6 15 -10 8 -3 15 -1 15 4 0 6 -7 10 -15 10 -8 0
-15 -2 -15 -4z"/>
<path d="M655 2020 c4 -6 11 -8 16 -5 14 9 11 15 -7 15 -8 0 -12 -5 -9 -10z"/>
<path d="M860 1910 c0 -5 5 -10 10 -10 6 0 10 5 10 10 0 6 -4 10 -10 10 -5 0
-10 -4 -10 -10z"/>
<path d="M4895 1820 c-3 -5 -1 -10 4 -10 6 0 11 5 11 10 0 6 -2 10 -4 10 -3 0
-8 -4 -11 -10z"/>
<path d="M4970 1820 c0 -5 7 -10 15 -10 8 0 15 5 15 10 0 6 -7 10 -15 10 -8 0
-15 -4 -15 -10z"/>
<path d="M870 1765 c0 -8 6 -15 14 -15 7 0 19 7 26 15 11 13 8 15 -14 15 -16
0 -26 -5 -26 -15z"/>
<path d="M840 1735 c0 -17 22 -29 41 -23 8 3 6 9 -5 21 -22 21 -36 22 -36 2z"/>
<path d="M0 1429 c0 -16 4 -28 9 -25 11 7 11 56 0 56 -5 0 -9 -14 -9 -31z"/>
<path d="M730 1425 c0 -14 5 -25 10 -25 6 0 10 11 10 25 0 14 -4 25 -10 25 -5
0 -10 -11 -10 -25z"/>
<path d="M135 1420 c-3 -5 0 -10 7 -11 7 0 21 -2 31 -4 9 -2 17 3 17 11 0 16
-45 19 -55 4z"/>
<path d="M553 1409 c-1 -10 2 -19 8 -19 5 0 9 -10 9 -22 0 -14 4 -18 9 -12 12
12 3 61 -13 67 -7 3 -13 -4 -13 -14z"/>
<path d="M338 1383 c-22 -11 -28 -21 -28 -49 0 -25 4 -34 16 -34 11 0 14 5 10
16 -9 25 3 56 20 50 9 -3 14 1 14 14 0 11 -1 20 -2 19 -2 -1 -15 -8 -30 -16z"/>
<path d="M432 1340 c0 -14 2 -19 5 -12 2 6 2 18 0 25 -3 6 -5 1 -5 -13z"/>
<path d="M598 1328 c-10 -12 -18 -28 -18 -34 0 -7 -8 -19 -18 -26 -10 -7 -22
-19 -26 -26 -6 -9 -2 -10 16 -1 33 16 70 65 66 89 -3 19 -4 19 -20 -2z"/>
<path d="M460 1310 c-12 -7 -12 -12 4 -29 18 -19 46 -19 46 2 0 6 -3 7 -7 3
-4 -3 -12 2 -18 13 -7 14 -14 17 -25 11z"/>
<path d="M605 1260 c-9 -16 -11 -30 -6 -30 5 0 12 -8 14 -17 4 -14 5 -12 6 5
1 18 7 22 31 22 20 0 30 5 30 15 0 8 -7 15 -15 15 -8 0 -15 5 -15 10 0 22 -30
8 -45 -20z"/>
<path d="M430 1225 c0 -8 4 -15 10 -15 5 0 7 7 4 15 -4 8 -8 15 -10 15 -2 0
-4 -7 -4 -15z"/>
<path d="M4960 1215 c0 -8 7 -15 16 -15 14 0 14 3 4 15 -7 8 -14 15 -16 15 -2
0 -4 -7 -4 -15z"/>
<path d="M627 1183 c-10 -9 -8 -33 2 -33 5 0 11 9 14 20 5 20 -3 26 -16 13z"/>
<path d="M667 1150 c-18 -20 -23 -31 -16 -36 7 -4 18 0 24 10 12 15 13 15 18
-4 7 -27 21 -25 35 5 10 21 9 27 -3 31 -8 3 -19 3 -24 -1 -7 -3 -8 0 -5 9 8
22 3 19 -29 -14z"/>
<path d="M383 1140 c0 -17 4 -30 9 -30 4 0 8 11 8 24 0 14 -4 27 -8 30 -5 3
-9 -8 -9 -24z"/>
<path d="M770 1129 c0 -5 5 -7 10 -4 6 3 10 8 10 11 0 2 -4 4 -10 4 -5 0 -10
-5 -10 -11z"/>
<path d="M1372 1127 c-8 -10 -6 -16 9 -25 11 -7 17 -17 14 -22 -9 -14 -21 -12
-40 6 -20 20 -37 7 -29 -22 4 -16 11 -19 35 -16 23 3 34 -1 45 -17 16 -22 58
-29 69 -11 3 6 -3 10 -14 10 -30 0 -26 17 7 28 27 10 26 10 -10 11 -21 1 -38
6 -38 11 0 6 6 10 13 11 6 0 2 4 -10 9 -13 5 -23 16 -23 25 0 18 -14 20 -28 2z"/>
<path d="M320 1105 c0 -14 5 -25 10 -25 6 0 10 11 10 25 0 14 -4 25 -10 25 -5
0 -10 -11 -10 -25z"/>
<path d="M755 1100 c3 -5 8 -10 11 -10 2 0 4 5 4 10 0 6 -5 10 -11 10 -5 0 -7
-4 -4 -10z"/>
<path d="M625 1089 c-11 -17 1 -21 15 -4 8 9 8 15 2 15 -6 0 -14 -5 -17 -11z"/>
<path d="M210 1071 c-12 -24 -13 -31 -1 -31 5 0 11 11 13 25 6 30 2 32 -12 6z"/>
<path d="M683 1083 c-7 -3 -13 -13 -13 -23 0 -10 -4 -22 -10 -25 -12 -8 17
-55 35 -55 14 0 35 42 35 70 0 11 -6 20 -14 20 -8 0 -16 4 -18 9 -1 4 -9 6
-15 4z"/>
<path d="M300 1059 c-13 -9 -12 -10 3 -5 9 3 17 1 17 -5 0 -6 5 -7 10 -4 11 7
4 25 -8 25 -4 0 -14 -5 -22 -11z"/>
<path d="M350 1055 c-7 -9 -10 -18 -7 -21 9 -9 48 16 42 27 -9 13 -21 11 -35
-6z"/>
<path d="M40 1032 c0 -5 7 -15 15 -22 8 -7 15 -8 15 -2 0 5 -7 15 -15 22 -8 7
-15 8 -15 2z"/>
<path d="M250 1022 c0 -18 37 -42 65 -42 24 0 17 13 -18 38 -40 27 -47 27 -47
4z"/>
<path d="M111 994 c0 -11 3 -14 6 -6 3 7 2 16 -1 19 -3 4 -6 -2 -5 -13z"/>
<path d="M10 970 c-8 -15 -8 -20 2 -20 7 0 19 9 26 20 10 17 10 20 -3 20 -8 0
-19 -9 -25 -20z"/>
<path d="M640 976 c0 -9 5 -16 10 -16 6 0 10 4 10 9 0 6 -4 13 -10 16 -5 3
-10 -1 -10 -9z"/>
<path d="M738 983 c7 -3 16 -2 19 1 4 3 -2 6 -13 5 -11 0 -14 -3 -6 -6z"/>
<path d="M1386 908 c9 -31 12 -34 26 -20 8 8 8 15 -2 27 -19 22 -32 18 -24 -7z"/>
<path d="M1395 851 c-3 -6 -17 -11 -31 -11 -15 0 -24 -6 -24 -15 0 -9 -9 -15
-22 -15 -21 -1 -21 -2 -6 -13 15 -12 15 -14 -3 -25 -10 -7 -25 -12 -33 -12
-17 0 -27 -35 -14 -48 15 -15 38 -3 38 19 0 10 5 19 10 19 13 0 13 -27 0 -35
-16 -10 -5 -50 15 -53 20 -4 65 17 65 30 0 4 -8 8 -17 8 -13 0 -14 3 -5 12 7
7 12 23 12 36 0 17 4 23 15 18 8 -3 22 -3 30 0 17 7 21 44 4 44 -5 0 -9 10 -7
22 3 23 -16 36 -27 19z"/>
<path d="M1225 760 c-3 -5 1 -10 9 -10 9 0 16 5 16 10 0 6 -4 10 -9 10 -6 0
-13 -4 -16 -10z"/>
<path d="M960 333 c1 -18 47 -59 57 -50 8 9 -30 67 -44 67 -7 0 -13 -8 -13
-17z"/>
<path d="M1805 240 c-3 -5 -1 -10 4 -10 6 0 11 5 11 10 0 6 -2 10 -4 10 -3 0
-8 -4 -11 -10z"/>
<path d="M975 200 c-13 -6 -15 -9 -5 -9 8 0 22 4 30 9 18 12 2 12 -25 0z"/>
<path d="M1800 186 c0 -8 5 -18 10 -21 13 -8 13 -42 -1 -47 -16 -5 7 -58 26
-58 8 0 15 -7 15 -15 0 -9 9 -15 23 -16 21 0 21 -1 2 -9 -14 -6 -3 -9 39 -9
45 -1 56 2 49 12 -9 12 -9 30 -2 72 4 20 -50 85 -71 85 -16 0 -20 -18 -5 -24
8 -3 15 -12 15 -21 0 -18 -16 -20 -24 -2 -3 6 -3 -13 0 -43 5 -43 3 -52 -6
-43 -7 6 -15 32 -18 58 -2 26 -11 49 -18 52 -8 3 -14 14 -14 24 0 10 -4 19
-10 19 -5 0 -10 -6 -10 -14z"/>
<path d="M1368 13 c6 -2 18 -2 25 0 6 3 1 5 -13 5 -14 0 -19 -2 -12 -5z"/>
</g>
</svg>
